<?xml version="1.0" encoding="UTF-8" standalone="no"?>
<svg
   xmlns:dc="http://purl.org/dc/elements/1.1/"
   xmlns:cc="http://creativecommons.org/ns#"
   xmlns:rdf="http://www.w3.org/1999/02/22-rdf-syntax-ns#"
   xmlns:svg="http://www.w3.org/2000/svg"
   xmlns="http://www.w3.org/2000/svg"
   xmlns:sodipodi="http://sodipodi.sourceforge.net/DTD/sodipodi-0.dtd"
   xmlns:inkscape="http://www.inkscape.org/namespaces/inkscape"
   enable-background="new 0 0 24 24"
   height="36"
   viewBox="0 0 100 36"
   width="100"
   version="1.1"
   id="svg6"
   sodipodi:docname="app_login_logo.svg"
   style="fill:#000000"
   inkscape:version="0.92.5 (2060ec1f9f, 2020-04-08)"
   inkscape:export-filename="/var/www/html/BesteApt/css/beste.png"
   inkscape:export-xdpi="18"
   inkscape:export-ydpi="18">
  <metadata
     id="metadata12">
    <rdf:RDF>
      <cc:Work
         rdf:about="">
        <dc:format>image/svg+xml</dc:format>
        <dc:type
           rdf:resource="http://purl.org/dc/dcmitype/StillImage" />
        <dc:title />
      </cc:Work>
    </rdf:RDF>
  </metadata>
  <defs
     id="defs10" />
  <sodipodi:namedview
     pagecolor="#ffffff"
     bordercolor="#666666"
     borderopacity="1"
     objecttolerance="10"
     gridtolerance="10"
     guidetolerance="10"
     inkscape:pageopacity="0"
     inkscape:pageshadow="2"
     inkscape:window-width="1920"
     inkscape:window-height="1007"
     id="namedview8"
     showgrid="false"
     inkscape:zoom="10.054175"
     inkscape:cx="50.565726"
     inkscape:cy="15.366751"
     inkscape:window-x="0"
     inkscape:window-y="0"
     inkscape:window-maximized="1"
     inkscape:current-layer="svg6"
     inkscape:pagecheckerboard="0" />
  <rect
     height="20.087322"
     width="20.087322"
     id="rect2"
     x="2.8722703"
     y="4.4817209"
     style="fill:none;stroke-width:0.83697182" />
  <g
     aria-label="Beste"
     style="font-style:normal;font-weight:normal;font-size:40px;line-height:1.25;font-family:sans-serif;letter-spacing:0px;word-spacing:0px;fill:#92374d;fill-opacity:1;stroke:none"
     id="text824"
     transform="translate(-0.806466,5.0858885)">
    <g
       aria-label="yönetici"
       style="font-style:normal;font-weight:normal;font-size:22.66670036px;line-height:1.25;font-family:sans-serif;fill:#92374d;fill-opacity:1;stroke:none"
       id="text1511">
      <path
         d="m 37.672909,15.851553 q 0.657334,-2.26667 1.201335,-4.556006 0.544001,-2.2893372 1.042668,-4.873341 h 1.926669 q -0.34,1.6546691 -0.748001,3.2640048 -0.385334,1.6093362 -0.816001,3.1053382 -0.408,1.496002 -0.838668,2.833337 -0.408,1.314669 -0.770668,2.402671 -0.430667,1.269335 -0.838667,2.130669 -0.385334,0.884002 -0.861335,1.405336 -0.453334,0.544001 -0.997335,0.770668 -0.544001,0.249333 -1.292002,0.249333 -0.408,0 -0.816001,-0.113333 -0.408001,-0.09067 -0.680001,-0.204 l 0.362667,-1.586669 q 0.589334,0.249333 1.110668,0.249333 0.657335,0 1.065335,-0.476001 0.408001,-0.476 0.793335,-1.428002 l 0.226667,-0.566667 Q 36.312907,17.279555 35.859573,15.851553 35.428905,14.400885 34.998238,12.836882 34.590237,11.27288 34.204903,9.6408774 33.81957,7.9862083 33.502236,6.422206 h 2.062669 q 0.181334,1.0653349 0.430668,2.3346701 0.249334,1.2693349 0.521334,2.5386709 0.294667,1.269335 0.589334,2.47067 0.294667,1.178668 0.566668,2.085336 z"
         style="font-style:normal;font-variant:normal;font-weight:normal;font-stretch:normal;font-size:22.66670036px;font-family:'Ubuntu Condensed';-inkscape-font-specification:'Ubuntu Condensed, ';fill:#92374d;fill-opacity:1"
         id="path1491"
         inkscape:connector-curvature="0" />
      <path
         d="m 51.318255,12.383548 q 0,1.405336 -0.249334,2.561337 -0.249333,1.133335 -0.770668,1.949337 -0.498667,0.816001 -1.292001,1.269335 -0.770668,0.453334 -1.836003,0.453334 -1.065335,0 -1.85867,-0.453334 -0.793334,-0.453334 -1.314668,-1.269335 -0.498668,-0.816002 -0.748001,-1.949337 -0.249334,-1.156001 -0.249334,-2.561337 0,-1.382669 0.249334,-2.5386703 0.249333,-1.1560017 0.748001,-1.9720029 0.521334,-0.8386679 1.314668,-1.2920019 0.793335,-0.453334 1.85867,-0.453334 1.065335,0 1.836003,0.453334 0.793334,0.453334 1.292001,1.2920019 0.521335,0.8160012 0.770668,1.9720029 0.249334,1.1560013 0.249334,2.5386703 z m -2.040003,0 q 0,-0.997335 -0.113334,-1.813336 Q 49.051585,9.7315442 48.802251,9.14221 48.552918,8.5302091 48.144917,8.2128753 47.736916,7.8728748 47.170249,7.8728748 q -0.589334,0 -0.997335,0.3400005 -0.385334,0.3173338 -0.657334,0.9293347 -0.249334,0.5893342 -0.362667,1.428002 -0.113334,0.816001 -0.113334,1.813336 0,0.997335 0.113334,1.836003 0.113333,0.816001 0.362667,1.405335 0.272,0.589335 0.657334,0.929335 0.408001,0.317334 0.997335,0.317334 0.566667,0 0.974668,-0.317334 0.408001,-0.34 0.657334,-0.929335 0.249334,-0.589334 0.362667,-1.405335 0.113334,-0.838668 0.113334,-1.836003 z M 45.266246,4.3142028 q -0.521334,0 -0.906668,-0.3400005 -0.362667,-0.3626672 -0.362667,-0.9520014 0,-0.5893342 0.362667,-0.9293347 0.385334,-0.3626672 0.906668,-0.3626672 0.521334,0 0.884001,0.3626672 0.385334,0.3400005 0.385334,0.9293347 0,0.5893342 -0.385334,0.9520014 -0.362667,0.3400005 -0.884001,0.3400005 z m 3.762672,0 q -0.521334,0 -0.906668,-0.3400005 -0.362667,-0.3626672 -0.362667,-0.9520014 0,-0.5893342 0.362667,-0.9293347 0.385334,-0.3626672 0.906668,-0.3626672 0.521334,0 0.884002,0.3626672 0.385333,0.3400005 0.385333,0.9293347 0,0.5893342 -0.385333,0.9520014 -0.362668,0.3400005 -0.884002,0.3400005 z"
         style="font-style:normal;font-variant:normal;font-weight:normal;font-stretch:normal;font-size:22.66670036px;font-family:'Ubuntu Condensed';-inkscape-font-specification:'Ubuntu Condensed, ';fill:#92374d;fill-opacity:1"
         id="path1493"
         inkscape:connector-curvature="0" />
      <path
         d="m 54.174245,6.7622065 q 0.838668,-0.2493337 1.813336,-0.4080006 0.974668,-0.1813336 1.790669,-0.1813336 0.884002,0 1.609336,0.2493337 0.725334,0.226667 1.224002,0.7933345 0.521334,0.5666675 0.793334,1.5413356 0.294668,0.9520014 0.294668,2.3800039 v 7.185344 h -1.949337 v -7.026677 q 0,-1.7680031 -0.453334,-2.5840043 -0.453334,-0.8160012 -1.700002,-0.8160012 -0.657335,0 -1.473336,0.226667 V 18.322224 h -1.949336 z"
         style="font-style:normal;font-variant:normal;font-weight:normal;font-stretch:normal;font-size:22.66670036px;font-family:'Ubuntu Condensed';-inkscape-font-specification:'Ubuntu Condensed, ';fill:#92374d;fill-opacity:1"
         id="path1495"
         inkscape:connector-curvature="0" />
      <path
         d="m 66.436892,12.950216 q 0.02267,0.861334 0.158667,1.586669 0.136,0.702667 0.430668,1.246668 0.317333,0.521334 0.816001,0.816001 0.521334,0.294668 1.314668,0.294668 0.657335,0 1.201336,-0.181334 0.566667,-0.204 0.816001,-0.340001 L 71.5369,17.93689 q -0.294667,0.204 -0.997335,0.430667 -0.680001,0.249334 -1.632002,0.249334 -1.246669,0 -2.108003,-0.453334 -0.838668,-0.453334 -1.382669,-1.269335 -0.521334,-0.816002 -0.748001,-1.949337 -0.226667,-1.133335 -0.226667,-2.493337 0,-3.2866713 1.088001,-4.8053402 1.088002,-1.5186689 2.878671,-1.5186689 2.017337,0 2.856005,1.5186689 0.838667,1.5186689 0.838667,4.2613392 0,0.249334 0,0.521335 0,0.249333 -0.02267,0.521334 z m 1.972003,-5.168008 q -0.974668,0 -1.428002,0.9746681 -0.430667,0.9746681 -0.521334,2.6066709 h 3.604005 q 0,-1.6546695 -0.34,-2.6066709 Q 69.383563,7.782208 68.408895,7.782208 Z"
         style="font-style:normal;font-variant:normal;font-weight:normal;font-stretch:normal;font-size:22.66670036px;font-family:'Ubuntu Condensed';-inkscape-font-specification:'Ubuntu Condensed, ';fill:#92374d;fill-opacity:1"
         id="path1497"
         inkscape:connector-curvature="0" />
      <path
         d="m 76.795553,6.422206 h 2.992004 v 1.6773358 h -2.992004 v 6.5506762 q 0,1.224002 0.430667,1.722669 0.453334,0.476001 1.201335,0.476001 0.385334,0 0.725335,-0.113333 0.362667,-0.113334 0.612001,-0.272001 l 0.385334,1.564003 q -0.929335,0.544 -1.972003,0.544 -1.677336,0 -2.516004,-0.929334 -0.816001,-0.952002 -0.816001,-3.128005 V 3.2262012 l 1.949336,-0.3400005 z"
         style="font-style:normal;font-variant:normal;font-weight:normal;font-stretch:normal;font-size:22.66670036px;font-family:'Ubuntu Condensed';-inkscape-font-specification:'Ubuntu Condensed, ';fill:#92374d;fill-opacity:1"
         id="path1499"
         inkscape:connector-curvature="0" />
      <path
         d="M 84.207543,18.322224 H 82.258206 V 6.422206 h 1.949337 z M 83.232875,4.3142028 q -0.521335,0 -0.906668,-0.3400005 -0.362668,-0.3626672 -0.362668,-0.9520014 0,-0.5893342 0.362668,-0.9293347 0.385333,-0.3626672 0.906668,-0.3626672 0.521334,0 0.884001,0.3626672 0.385334,0.3400005 0.385334,0.9293347 0,0.5893342 -0.385334,0.9520014 -0.362667,0.3400005 -0.884001,0.3400005 z"
         style="font-style:normal;font-variant:normal;font-weight:normal;font-stretch:normal;font-size:22.66670036px;font-family:'Ubuntu Condensed';-inkscape-font-specification:'Ubuntu Condensed, ';fill:#92374d;fill-opacity:1"
         id="path1501"
         inkscape:connector-curvature="0" />
      <path
         d="m 91.370188,18.616891 q -1.224002,0 -2.040003,-0.476001 -0.816001,-0.476001 -1.337335,-1.292002 -0.498668,-0.838668 -0.725335,-1.972003 -0.204,-1.133335 -0.204,-2.47067 0,-2.9466712 1.065335,-4.6013403 1.088002,-1.6773358 3.264005,-1.6773358 0.657334,0 1.178668,0.1586669 0.521334,0.1586669 0.974668,0.4080006 l -0.498667,1.6093357 q -0.702668,-0.453334 -1.564002,-0.453334 -1.224002,0 -1.813336,1.1106683 -0.566668,1.1106686 -0.566668,3.4453386 0,0.974668 0.113334,1.813336 0.113333,0.816001 0.385334,1.405335 0.294667,0.589335 0.748001,0.929335 0.476,0.340001 1.201335,0.340001 0.498667,0 0.884001,-0.113334 0.408001,-0.136 0.770668,-0.34 l 0.430667,1.518668 q -0.362667,0.249334 -0.974668,0.453334 -0.589334,0.204001 -1.292002,0.204001 z"
         style="font-style:normal;font-variant:normal;font-weight:normal;font-stretch:normal;font-size:22.66670036px;font-family:'Ubuntu Condensed';-inkscape-font-specification:'Ubuntu Condensed, ';fill:#92374d;fill-opacity:1"
         id="path1503"
         inkscape:connector-curvature="0" />
      <path
         d="M 97.694172,18.322224 H 95.744836 V 6.422206 h 1.949336 z M 96.719504,4.3142028 q -0.521334,0 -0.906668,-0.3400005 -0.362667,-0.3626672 -0.362667,-0.9520014 0,-0.5893342 0.362667,-0.9293347 0.385334,-0.3626672 0.906668,-0.3626672 0.521334,0 0.884001,0.3626672 0.385334,0.3400005 0.385334,0.9293347 0,0.5893342 -0.385334,0.9520014 -0.362667,0.3400005 -0.884001,0.3400005 z"
         style="font-style:normal;font-variant:normal;font-weight:normal;font-stretch:normal;font-size:22.66670036px;font-family:'Ubuntu Condensed';-inkscape-font-specification:'Ubuntu Condensed, ';fill:#92374d;fill-opacity:1"
         id="path1505"
         inkscape:connector-curvature="0" />
    </g>
  </g>
  <g
     aria-label="Akıllı Bina Yönetim Sistemi"
     style="font-style:normal;font-weight:normal;font-size:40px;line-height:1.25;font-family:sans-serif;letter-spacing:0px;word-spacing:0px;fill:#2b303a;fill-opacity:1;stroke:none"
     id="text1667">
    <path
       d="m 40.789,30.273916 1.221354,-3.791667 h 0.411459 l 1.221354,3.791667 h -0.489583 l -0.296875,-0.992187 h -1.28125 l -0.296875,0.992187 z m 0.911459,-1.403646 h 1.03125 l -0.515625,-1.721354 z"
       style="font-style:normal;font-variant:normal;font-weight:normal;font-stretch:normal;font-size:5.33333349px;font-family:'Roboto Condensed';-inkscape-font-specification:'Roboto Condensed, ';fill:#2b303a;fill-opacity:1"
       id="path865" />
    <path
       d="M 45.57025,30.273916 44.80723,28.979645 44.562438,29.2635 v 1.010416 H 44.1015 v -4 h 0.460938 v 2.388021 l 0.875,-1.205729 h 0.554687 l -0.895833,1.174479 1.010417,1.643229 z"
       style="font-style:normal;font-variant:normal;font-weight:normal;font-stretch:normal;font-size:5.33333349px;font-family:'Roboto Condensed';-inkscape-font-specification:'Roboto Condensed, ';fill:#2b303a;fill-opacity:1"
       id="path867" />
    <path
       d="m 46.999938,27.456208 v 2.817708 h -0.460937 v -2.817708 z"
       style="font-style:normal;font-variant:normal;font-weight:normal;font-stretch:normal;font-size:5.33333349px;font-family:'Roboto Condensed';-inkscape-font-specification:'Roboto Condensed, ';fill:#2b303a;fill-opacity:1"
       id="path869" />
    <path
       d="m 48.252542,26.273916 v 4 h -0.458333 v -4 z"
       style="font-style:normal;font-variant:normal;font-weight:normal;font-stretch:normal;font-size:5.33333349px;font-family:'Roboto Condensed';-inkscape-font-specification:'Roboto Condensed, ';fill:#2b303a;fill-opacity:1"
       id="path871" />
    <path
       d="m 49.476501,26.273916 v 4 h -0.458333 v -4 z"
       style="font-style:normal;font-variant:normal;font-weight:normal;font-stretch:normal;font-size:5.33333349px;font-family:'Roboto Condensed';-inkscape-font-specification:'Roboto Condensed, ';fill:#2b303a;fill-opacity:1"
       id="path873" />
    <path
       d="m 50.703063,27.456208 v 2.817708 h -0.460937 v -2.817708 z"
       style="font-style:normal;font-variant:normal;font-weight:normal;font-stretch:normal;font-size:5.33333349px;font-family:'Roboto Condensed';-inkscape-font-specification:'Roboto Condensed, ';fill:#2b303a;fill-opacity:1"
       id="path875" />
    <path
       d="m 54.942647,29.180166 q 0,0.53125 -0.291667,0.8125 -0.289062,0.28125 -0.773437,0.28125 h -1.130209 v -3.791667 h 1.083334 q 0.486979,0 0.76302,0.242188 0.276042,0.239583 0.276042,0.768229 0,0.260417 -0.132812,0.466146 -0.130209,0.203125 -0.354167,0.315104 0.273437,0.08594 0.416667,0.335938 0.143229,0.247396 0.143229,0.570312 z m -1.716146,-2.286458 v 1.203125 h 0.609375 q 0.242187,0 0.398437,-0.161458 0.15625,-0.161459 0.15625,-0.447917 0,-0.580729 -0.536458,-0.59375 z m 1.236979,2.291667 q 0,-0.666667 -0.536458,-0.684896 h -0.700521 v 1.364583 h 0.651042 q 0.278645,0 0.432291,-0.182292 0.153646,-0.184895 0.153646,-0.497395 z"
       style="font-style:normal;font-variant:normal;font-weight:normal;font-stretch:normal;font-size:5.33333349px;font-family:'Roboto Condensed';-inkscape-font-specification:'Roboto Condensed, ';fill:#2b303a;fill-opacity:1"
       id="path877" />
    <path
       d="m 55.606709,26.708812 q 0,-0.117188 0.0651,-0.197917 0.0651,-0.08073 0.195313,-0.08073 0.127604,0 0.195312,0.08073 0.06771,0.08073 0.06771,0.197917 0,0.111979 -0.06771,0.192708 -0.06771,0.07813 -0.195312,0.07813 -0.130209,0 -0.195313,-0.07813 -0.0651,-0.08073 -0.0651,-0.192708 z m 0.484375,0.747396 v 2.817708 h -0.458333 v -2.817708 z"
       style="font-style:normal;font-variant:normal;font-weight:normal;font-stretch:normal;font-size:5.33333349px;font-family:'Roboto Condensed';-inkscape-font-specification:'Roboto Condensed, ';fill:#2b303a;fill-opacity:1"
       id="path879" />
    <path
       d="m 57.809835,27.810375 q -0.169271,0 -0.307292,0.114583 -0.135417,0.114583 -0.221354,0.299479 v 2.049479 h -0.460938 v -2.817708 h 0.434896 l 0.01302,0.299479 q 0.268229,-0.351563 0.684896,-0.351563 0.346354,0 0.552083,0.234375 0.205729,0.234376 0.205729,0.789063 v 1.846354 h -0.460937 v -1.851562 q 0,-0.330729 -0.109375,-0.471354 -0.109375,-0.140625 -0.330729,-0.140625 z"
       style="font-style:normal;font-variant:normal;font-weight:normal;font-stretch:normal;font-size:5.33333349px;font-family:'Roboto Condensed';-inkscape-font-specification:'Roboto Condensed, ';fill:#2b303a;fill-opacity:1"
       id="path881" />
    <path
       d="m 60.854105,30.273916 q -0.04427,-0.101562 -0.0625,-0.304687 -0.09635,0.143229 -0.255208,0.25 -0.158854,0.106771 -0.367188,0.106771 -0.369791,0 -0.59375,-0.208334 -0.221354,-0.208333 -0.221354,-0.611979 0,-0.40625 0.278646,-0.671875 0.278646,-0.268229 0.833333,-0.268229 h 0.317709 V 28.2635 q 0,-0.25 -0.114584,-0.356771 -0.111979,-0.106771 -0.338541,-0.106771 -0.221355,0 -0.346355,0.130208 -0.122395,0.130209 -0.122395,0.307292 H 59.40098 q 0,-0.302083 0.257813,-0.567708 0.257812,-0.265626 0.695312,-0.265626 0.390625,0 0.640625,0.195313 0.25,0.195313 0.25,0.669271 v 1.34375 q 0,0.398437 0.08594,0.619792 v 0.04167 z m -0.614583,-0.367187 q 0.195312,0 0.338541,-0.101563 0.14323,-0.101562 0.20573,-0.226562 v -0.674479 h -0.242188 q -0.330729,0 -0.528646,0.140625 -0.197916,0.140625 -0.197916,0.403645 0,0.252605 0.104166,0.356771 0.106771,0.101563 0.320313,0.101563 z"
       style="font-style:normal;font-variant:normal;font-weight:normal;font-stretch:normal;font-size:5.33333349px;font-family:'Roboto Condensed';-inkscape-font-specification:'Roboto Condensed, ';fill:#2b303a;fill-opacity:1"
       id="path883" />
    <path
       d="m 63.458272,26.482249 0.773438,1.903646 0.776042,-1.903646 h 0.541666 l -1.078125,2.375001 v 1.416666 H 63.992126 V 28.85725 l -1.078125,-2.375001 z"
       style="font-style:normal;font-variant:normal;font-weight:normal;font-stretch:normal;font-size:5.33333349px;font-family:'Roboto Condensed';-inkscape-font-specification:'Roboto Condensed, ';fill:#2b303a;fill-opacity:1"
       id="path885" />
    <path
       d="m 65.716085,28.73225 q 0,-0.658855 0.315105,-0.992188 0.315104,-0.335938 0.770833,-0.335938 0.460937,0 0.776042,0.335938 0.317708,0.333333 0.317708,0.992188 v 0.268229 q 0,0.658854 -0.317708,0.992187 Q 67.26296,30.326 66.807231,30.326 q -0.458333,0 -0.776041,-0.333334 -0.315105,-0.333333 -0.315105,-0.992187 z m 0.460938,0.268229 q 0,0.466146 0.179687,0.700521 0.179688,0.23177 0.450521,0.23177 0.609375,0 0.627604,-0.880208 V 28.73225 q 0,-0.460938 -0.182291,-0.695313 -0.179688,-0.236979 -0.450521,-0.236979 -0.268229,0 -0.447917,0.236979 -0.177083,0.234375 -0.177083,0.695313 z m -0.236979,-2.296875 q 0,-0.117188 0.07292,-0.197917 0.07292,-0.08073 0.210938,-0.08073 0.140625,0 0.213542,0.08073 0.07292,0.08073 0.07292,0.197917 0,0.111979 -0.07292,0.192708 -0.07292,0.07813 -0.213542,0.07813 -0.138021,0 -0.210938,-0.07813 -0.07292,-0.08073 -0.07292,-0.192708 z m 1.122396,0.0052 q 0,-0.117188 0.07031,-0.197917 0.07292,-0.08073 0.213542,-0.08073 0.138021,0 0.210937,0.08073 0.07552,0.08073 0.07552,0.197917 0,0.111979 -0.07552,0.192708 -0.07292,0.07813 -0.210937,0.07813 -0.140625,0 -0.213542,-0.07813 -0.07031,-0.08073 -0.07031,-0.192708 z"
       style="font-style:normal;font-variant:normal;font-weight:normal;font-stretch:normal;font-size:5.33333349px;font-family:'Roboto Condensed';-inkscape-font-specification:'Roboto Condensed, ';fill:#2b303a;fill-opacity:1"
       id="path887" />
    <path
       d="m 69.479105,27.810375 q -0.169271,0 -0.307292,0.114583 -0.135416,0.114583 -0.221354,0.299479 v 2.049479 h -0.460937 v -2.817708 h 0.434896 l 0.01302,0.299479 q 0.26823,-0.351563 0.684896,-0.351563 0.346354,0 0.552084,0.234375 0.205729,0.234376 0.205729,0.789063 v 1.846354 h -0.460938 v -1.851562 q 0,-0.330729 -0.109375,-0.471354 -0.109375,-0.140625 -0.330729,-0.140625 z"
       style="font-style:normal;font-variant:normal;font-weight:normal;font-stretch:normal;font-size:5.33333349px;font-family:'Roboto Condensed';-inkscape-font-specification:'Roboto Condensed, ';fill:#2b303a;fill-opacity:1"
       id="path889" />
    <path
       d="m 72.994731,29.90152 q -0.114584,0.161459 -0.333334,0.294271 -0.216145,0.130209 -0.580729,0.130209 -0.505208,0 -0.799479,-0.302084 -0.294271,-0.304687 -0.296875,-0.942708 v -0.330729 q 0,-0.744792 0.322917,-1.044271 0.322916,-0.302084 0.721354,-0.302084 0.528646,0 0.757812,0.341146 0.229167,0.341146 0.229167,0.98698 v 0.268229 h -1.570313 v 0.06771 q 0,0.450521 0.169271,0.658854 0.171875,0.205729 0.492188,0.205729 0.231771,0 0.380208,-0.08854 0.151042,-0.09115 0.265625,-0.231771 z m -0.966146,-2.101562 q -0.239584,0 -0.398438,0.166667 -0.158854,0.164062 -0.182291,0.640625 h 1.106771 v -0.0651 q -0.01823,-0.32552 -0.122396,-0.533854 -0.101563,-0.208333 -0.403646,-0.208333 z"
       style="font-style:normal;font-variant:normal;font-weight:normal;font-stretch:normal;font-size:5.33333349px;font-family:'Roboto Condensed';-inkscape-font-specification:'Roboto Condensed, ';fill:#2b303a;fill-opacity:1"
       id="path891" />
    <path
       d="m 74.598897,30.273916 q -0.132812,0.05208 -0.322916,0.05208 -0.223959,0 -0.39323,-0.164063 -0.166666,-0.164062 -0.166666,-0.588542 V 27.826 h -0.429688 v -0.369792 h 0.429688 v -0.684896 h 0.460937 v 0.684896 h 0.42448 V 27.826 h -0.42448 v 1.75 q 0,0.216145 0.07292,0.276041 0.07552,0.0599 0.169271,0.0599 0.09896,0 0.182292,-0.03125 z"
       style="font-style:normal;font-variant:normal;font-weight:normal;font-stretch:normal;font-size:5.33333349px;font-family:'Roboto Condensed';-inkscape-font-specification:'Roboto Condensed, ';fill:#2b303a;fill-opacity:1"
       id="path893" />
    <path
       d="m 75.161397,26.708812 q 0,-0.117188 0.0651,-0.197917 0.06511,-0.08073 0.195313,-0.08073 0.127604,0 0.195312,0.08073 0.06771,0.08073 0.06771,0.197917 0,0.111979 -0.06771,0.192708 -0.06771,0.07813 -0.195312,0.07813 -0.130208,0 -0.195313,-0.07813 -0.0651,-0.08073 -0.0651,-0.192708 z m 0.484375,0.747396 v 2.817708 h -0.458333 v -2.817708 z"
       style="font-style:normal;font-variant:normal;font-weight:normal;font-stretch:normal;font-size:5.33333349px;font-family:'Roboto Condensed';-inkscape-font-specification:'Roboto Condensed, ';fill:#2b303a;fill-opacity:1"
       id="path895" />
    <path
       d="m 77.325459,27.810375 q -0.346355,0 -0.489584,0.34375 v 2.119791 h -0.458333 v -2.817708 h 0.432292 l 0.01302,0.255208 q 0.252605,-0.307292 0.677084,-0.307292 0.466146,0 0.65625,0.408855 0.265625,-0.408855 0.739583,-0.408855 0.385417,0 0.591146,0.242188 0.208333,0.242188 0.208333,0.776042 v 1.851562 h -0.460937 v -1.856771 q 0,-0.354166 -0.130209,-0.479166 -0.127604,-0.127604 -0.348958,-0.127604 -0.213542,0 -0.341146,0.166666 -0.125,0.164063 -0.148437,0.403646 v 1.893229 h -0.460938 v -1.893229 q -0.01302,-0.570312 -0.479166,-0.570312 z"
       style="font-style:normal;font-variant:normal;font-weight:normal;font-stretch:normal;font-size:5.33333349px;font-family:'Roboto Condensed';-inkscape-font-specification:'Roboto Condensed, ';fill:#2b303a;fill-opacity:1"
       id="path897" />
    <path
       d="m 83.335878,29.315583 q 0,-0.265625 -0.140625,-0.421875 -0.140625,-0.15625 -0.601563,-0.320313 -0.460937,-0.166666 -0.731771,-0.421875 -0.270833,-0.255208 -0.270833,-0.690104 0,-0.442708 0.294271,-0.736979 0.294271,-0.294271 0.791667,-0.294271 0.554687,0 0.846354,0.351563 0.291666,0.351562 0.291666,0.79427 h -0.479166 q 0,-0.317708 -0.15625,-0.526041 -0.15625,-0.208334 -0.502604,-0.208334 -0.315105,0 -0.460938,0.177084 -0.143229,0.174479 -0.143229,0.4375 0,0.239583 0.169271,0.398437 0.171875,0.158855 0.53125,0.289063 0.557291,0.182292 0.799479,0.453125 0.242187,0.270833 0.242187,0.713542 0,0.463541 -0.302083,0.739583 -0.299479,0.276042 -0.8125,0.276042 -0.296875,0 -0.575521,-0.130209 -0.278646,-0.130208 -0.458333,-0.385416 -0.177083,-0.257813 -0.177083,-0.635417 h 0.479166 q 0,0.388021 0.213542,0.565104 0.216146,0.177083 0.518229,0.177083 0.3125,0 0.473958,-0.161458 0.161459,-0.164062 0.161459,-0.440104 z"
       style="font-style:normal;font-variant:normal;font-weight:normal;font-stretch:normal;font-size:5.33333349px;font-family:'Roboto Condensed';-inkscape-font-specification:'Roboto Condensed, ';fill:#2b303a;fill-opacity:1"
       id="path899" />
    <path
       d="m 84.390565,26.708812 q 0,-0.117188 0.0651,-0.197917 0.06511,-0.08073 0.195313,-0.08073 0.127604,0 0.195312,0.08073 0.06771,0.08073 0.06771,0.197917 0,0.111979 -0.06771,0.192708 -0.06771,0.07813 -0.195312,0.07813 -0.130208,0 -0.195313,-0.07813 -0.0651,-0.08073 -0.0651,-0.192708 z m 0.484375,0.747396 v 2.817708 h -0.458333 v -2.817708 z"
       style="font-style:normal;font-variant:normal;font-weight:normal;font-stretch:normal;font-size:5.33333349px;font-family:'Roboto Condensed';-inkscape-font-specification:'Roboto Condensed, ';fill:#2b303a;fill-opacity:1"
       id="path901" />
    <path
       d="m 86.971293,29.552562 q 0,-0.161458 -0.125,-0.270833 -0.122396,-0.109375 -0.471354,-0.257813 -0.348958,-0.148437 -0.549479,-0.302083 -0.226563,-0.174479 -0.226563,-0.518229 0,-0.335938 0.244792,-0.567709 0.244792,-0.231771 0.648438,-0.231771 0.432291,0 0.671875,0.244792 0.239583,0.244792 0.239583,0.609375 h -0.458333 q 0,-0.174479 -0.117188,-0.315104 -0.117187,-0.143229 -0.335937,-0.143229 -0.231771,0 -0.333334,0.117187 -0.09896,0.117188 -0.09896,0.270834 0,0.153646 0.09896,0.239583 0.09896,0.08333 0.393229,0.213542 0.427084,0.169271 0.653646,0.351562 0.226563,0.182292 0.226563,0.523438 0,0.372396 -0.255209,0.591146 -0.255208,0.21875 -0.674479,0.21875 -0.479167,0 -0.731771,-0.273438 -0.252604,-0.273437 -0.252604,-0.622396 h 0.460938 q 0.01302,0.299479 0.179687,0.401042 0.166667,0.09896 0.34375,0.09896 0.46875,0 0.46875,-0.377604 z"
       style="font-style:normal;font-variant:normal;font-weight:normal;font-stretch:normal;font-size:5.33333349px;font-family:'Roboto Condensed';-inkscape-font-specification:'Roboto Condensed, ';fill:#2b303a;fill-opacity:1"
       id="path903" />
    <path
       d="m 89.06244,30.273916 q -0.132812,0.05208 -0.322916,0.05208 -0.223959,0 -0.39323,-0.164063 -0.166666,-0.164062 -0.166666,-0.588542 V 27.826 H 87.74994 v -0.369792 h 0.429688 v -0.684896 h 0.460937 v 0.684896 h 0.424479 V 27.826 h -0.424479 v 1.75 q 0,0.216145 0.07292,0.276041 0.07552,0.0599 0.169271,0.0599 0.09896,0 0.182291,-0.03125 z"
       style="font-style:normal;font-variant:normal;font-weight:normal;font-stretch:normal;font-size:5.33333349px;font-family:'Roboto Condensed';-inkscape-font-specification:'Roboto Condensed, ';fill:#2b303a;fill-opacity:1"
       id="path905" />
    <path
       d="m 91.536399,29.90152 q -0.114584,0.161459 -0.333334,0.294271 -0.216146,0.130209 -0.580729,0.130209 -0.505208,0 -0.799479,-0.302084 -0.294271,-0.304687 -0.296875,-0.942708 v -0.330729 q 0,-0.744792 0.322917,-1.044271 0.322916,-0.302084 0.721354,-0.302084 0.528646,0 0.757812,0.341146 0.229167,0.341146 0.229167,0.98698 v 0.268229 h -1.570313 v 0.06771 q 0,0.450521 0.169271,0.658854 0.171875,0.205729 0.492188,0.205729 0.231771,0 0.380208,-0.08854 0.151042,-0.09115 0.265625,-0.231771 z m -0.966146,-2.101562 q -0.239584,0 -0.398438,0.166667 -0.158854,0.164062 -0.182291,0.640625 h 1.10677 v -0.0651 q -0.01823,-0.32552 -0.122395,-0.533854 -0.101563,-0.208333 -0.403646,-0.208333 z"
       style="font-style:normal;font-variant:normal;font-weight:normal;font-stretch:normal;font-size:5.33333349px;font-family:'Roboto Condensed';-inkscape-font-specification:'Roboto Condensed, ';fill:#2b303a;fill-opacity:1"
       id="path907" />
    <path
       d="m 93.065044,27.810375 q -0.346354,0 -0.489583,0.34375 v 2.119791 h -0.458333 v -2.817708 h 0.432291 l 0.01302,0.255208 q 0.252604,-0.307292 0.677084,-0.307292 0.466145,0 0.65625,0.408855 0.265625,-0.408855 0.739583,-0.408855 0.385417,0 0.591146,0.242188 0.208333,0.242188 0.208333,0.776042 v 1.851562 h -0.460937 v -1.856771 q 0,-0.354166 -0.130209,-0.479166 -0.127604,-0.127604 -0.348958,-0.127604 -0.213542,0 -0.341146,0.166666 -0.125,0.164063 -0.148437,0.403646 v 1.893229 h -0.460938 v -1.893229 q -0.01302,-0.570312 -0.479167,-0.570312 z"
       style="font-style:normal;font-variant:normal;font-weight:normal;font-stretch:normal;font-size:5.33333349px;font-family:'Roboto Condensed';-inkscape-font-specification:'Roboto Condensed, ';fill:#2b303a;fill-opacity:1"
       id="path909" />
    <path
       d="m 96.140565,26.708812 q 0,-0.117188 0.0651,-0.197917 0.06511,-0.08073 0.195313,-0.08073 0.127604,0 0.195312,0.08073 0.06771,0.08073 0.06771,0.197917 0,0.111979 -0.06771,0.192708 -0.06771,0.07813 -0.195312,0.07813 -0.130208,0 -0.195313,-0.07813 -0.0651,-0.08073 -0.0651,-0.192708 z m 0.484375,0.747396 v 2.817708 h -0.458333 v -2.817708 z"
       style="font-style:normal;font-variant:normal;font-weight:normal;font-stretch:normal;font-size:5.33333349px;font-family:'Roboto Condensed';-inkscape-font-specification:'Roboto Condensed, ';fill:#2b303a;fill-opacity:1"
       id="path911" />
  </g>
  <path
     style="fill:#d9cfc1;fill-opacity:1;stroke:none;stroke-width:0.83697182px;stroke-linecap:butt;stroke-linejoin:miter;stroke-opacity:1"
     d="m 8.5699676,16.710738 7.5155584,-5.736881 7.515563,5.736881 V 27.858817 H 8.5699676 Z"
     id="path1671"
     inkscape:connector-curvature="0" />
  <path
     d="M 16.085526,7.8173217 8.5699676,13.5542 V 11.575101 H 6.0647802 v 3.895564 L 2.307,18.339105 3.8226381,20.330729 6.0647802,18.614676 V 30.364 H 26.106276 V 18.614676 l 2.242136,1.703527 1.515641,-1.979098 z M 23.601089,27.858817 H 17.33812 V 22.84844 h -2.505187 v 5.010377 H 8.5699676 V 16.710738 l 7.5155584,-5.736881 7.515563,5.736881 z M 13.580341,5.312135 c 0,2.079305 -1.678476,3.7577802 -3.7577794,3.7577802 -0.688928,0 -1.252594,0.563667 -1.252594,1.2525938 H 6.0647802 c 0,-2.0793055 1.6784754,-3.7577804 3.7577814,-3.7577804 0.6889244,0 1.2525934,-0.5636671 1.2525934,-1.2525936 z"
     id="path4"
     inkscape:connector-curvature="0"
     style="fill:#2f97c1;fill-opacity:1;stroke-width:1.25259352" />
</svg>
