<?xml version="1.0" encoding="UTF-8" standalone="no"?>
<svg
   xmlns:dc="http://purl.org/dc/elements/1.1/"
   xmlns:cc="http://creativecommons.org/ns#"
   xmlns:rdf="http://www.w3.org/1999/02/22-rdf-syntax-ns#"
   xmlns:svg="http://www.w3.org/2000/svg"
   xmlns="http://www.w3.org/2000/svg"
   xmlns:sodipodi="http://sodipodi.sourceforge.net/DTD/sodipodi-0.dtd"
   xmlns:inkscape="http://www.inkscape.org/namespaces/inkscape"
   enable-background="new 0 0 24 24"
   height="220"
   viewBox="0 0 512 220"
   width="512"
   version="1.1"
   id="svg26"
   sodipodi:docname="app_footer_logo.svg"
   style="fill:#000000"
   inkscape:version="0.92.5 (2060ec1f9f, 2020-04-08)">
  <metadata
     id="metadata32">
    <rdf:RDF>
      <cc:Work
         rdf:about="">
        <dc:format>image/svg+xml</dc:format>
        <dc:type
           rdf:resource="http://purl.org/dc/dcmitype/StillImage" />
      </cc:Work>
    </rdf:RDF>
  </metadata>
  <defs
     id="defs30" />
  <sodipodi:namedview
     pagecolor="#ffffff"
     bordercolor="#666666"
     borderopacity="1"
     objecttolerance="10"
     gridtolerance="10"
     guidetolerance="10"
     inkscape:pageopacity="0"
     inkscape:pageshadow="2"
     inkscape:window-width="1920"
     inkscape:window-height="1007"
     id="namedview28"
     showgrid="false"
     inkscape:zoom="1.38"
     inkscape:cx="155.14261"
     inkscape:cy="178.62319"
     inkscape:window-x="0"
     inkscape:window-y="0"
     inkscape:window-maximized="1"
     inkscape:current-layer="svg26"
     inkscape:pagecheckerboard="0" />
  <path
     d="M 76.146774,86.656899 40.858323,113.59374 v -9.29261 H 29.095504 v 18.29118 l -17.644232,13.46842 7.116515,9.35145 10.527717,-8.05753 v 55.16765 h 94.102556 v -55.16765 l 10.52771,7.99871 7.11651,-9.29263 z M 111.43524,180.75942 H 82.028197 V 157.23379 H 70.265363 v 23.52563 h -29.40704 v -52.3445 l 35.288451,-26.93687 35.288466,26.93687 z M 64.383953,74.894078 c 0,9.763133 -7.881085,17.64422 -17.644218,17.64422 -3.234779,0 -5.881412,2.646633 -5.881412,5.881422 H 29.095504 c 0,-9.763157 7.881084,-17.644234 17.644231,-17.644234 3.234764,0 5.881396,-2.646641 5.881396,-5.881408 z"
     id="path4"
     inkscape:connector-curvature="0"
     style="fill:#0000ff;stroke-width:5.88139629" />
  <g
     aria-label="yönetici"
     style="font-style:normal;font-weight:normal;font-size:114.66699982px;line-height:1.25;font-family:sans-serif;letter-spacing:0px;word-spacing:0px;fill:#000000;fill-opacity:1;stroke:none"
     id="text1511">
    <path
       d="m 188.9208,123.88454 q 3.32534,-11.4667 6.07735,-23.04807 2.75201,-11.581367 5.27468,-24.653405 h 9.74669 q -1.72,8.370691 -3.78401,16.512048 -1.94934,8.141357 -4.12801,15.709377 -2.064,7.56802 -4.24268,14.33338 -2.064,6.65068 -3.89868,12.1547 -2.17867,6.42135 -4.24267,10.7787 -1.94934,4.47201 -4.35735,7.10935 -2.29334,2.75201 -5.04535,3.89868 -2.75201,1.26134 -6.53602,1.26134 -2.064,0 -4.12801,-0.57334 -2.06401,-0.45867 -3.44001,-1.032 l 1.83467,-8.02669 q 2.98134,1.26133 5.61869,1.26133 3.32534,0 5.38934,-2.408 2.06401,-2.40801 4.01335,-7.22402 l 1.14667,-2.86668 q -2.17867,-5.96268 -4.47201,-13.1867 -2.17868,-7.33869 -4.35735,-15.25071 -2.06401,-7.91203 -4.01334,-16.168051 -1.94934,-8.370691 -3.55468,-16.282714 h 10.4347 q 0.91733,5.389349 2.17867,11.810701 1.26134,6.421352 2.63734,12.842704 1.49067,6.42135 2.98134,12.4987 1.49067,5.96269 2.86668,10.54937 z"
       style="font-style:normal;font-variant:normal;font-weight:normal;font-stretch:normal;font-size:114.66699982px;font-family:'Ubuntu Condensed';-inkscape-font-specification:'Ubuntu Condensed, ';text-align:end;text-anchor:end;fill:#000080"
       id="path2127" />
    <path
       d="m 257.95029,106.34049 q 0,7.10935 -1.26133,12.95737 -1.26134,5.73335 -3.89868,9.86136 -2.52268,4.12801 -6.53602,6.42135 -3.89868,2.29334 -9.28803,2.29334 -5.38935,0 -9.40269,-2.29334 -4.01335,-2.29334 -6.65069,-6.42135 -2.52267,-4.12801 -3.78401,-9.86136 -1.26134,-5.84802 -1.26134,-12.95737 0,-6.994691 1.26134,-12.842708 1.26134,-5.848017 3.78401,-9.976029 2.63734,-4.242679 6.65069,-6.536019 4.01334,-2.29334 9.40269,-2.29334 5.38935,0 9.28803,2.29334 4.01334,2.29334 6.53602,6.536019 2.63734,4.128012 3.89868,9.976029 1.26133,5.848017 1.26133,12.842708 z m -10.32003,0 q 0,-5.04535 -0.57333,-9.173364 -0.57334,-4.242679 -1.83467,-7.224021 -1.26134,-3.096009 -3.32535,-4.701347 -2.064,-1.720005 -4.93068,-1.720005 -2.98134,0 -5.04535,1.720005 -1.94933,1.605338 -3.32534,4.701347 -1.26134,2.981342 -1.83467,7.224021 -0.57334,4.128014 -0.57334,9.173364 0,5.04534 0.57334,9.28802 0.57333,4.12801 1.83467,7.10936 1.37601,2.98134 3.32534,4.70134 2.06401,1.60534 5.04535,1.60534 2.86668,0 4.93068,-1.60534 2.06401,-1.72 3.32535,-4.70134 1.26133,-2.98135 1.83467,-7.10936 0.57333,-4.24268 0.57333,-9.28802 z M 227.3342,65.519034 q -2.63734,0 -4.58668,-1.720005 -1.83467,-1.834672 -1.83467,-4.816014 0,-2.981342 1.83467,-4.701347 1.94934,-1.834672 4.58668,-1.834672 2.63735,0 4.47202,1.834672 1.94934,1.720005 1.94934,4.701347 0,2.981342 -1.94934,4.816014 -1.83467,1.720005 -4.47202,1.720005 z m 19.03473,0 q -2.63734,0 -4.58668,-1.720005 -1.83468,-1.834672 -1.83468,-4.816014 0,-2.981342 1.83468,-4.701347 1.94934,-1.834672 4.58668,-1.834672 2.63734,0 4.47201,1.834672 1.94934,1.720005 1.94934,4.701347 0,2.981342 -1.94934,4.816014 -1.83467,1.720005 -4.47201,1.720005 z"
       style="font-style:normal;font-variant:normal;font-weight:normal;font-stretch:normal;font-size:114.66699982px;font-family:'Ubuntu Condensed';-inkscape-font-specification:'Ubuntu Condensed, ';text-align:end;text-anchor:end;fill:#000080"
       id="path2129" />
    <path
       d="m 272.39826,77.90307 q 4.24268,-1.261337 9.17336,-2.064006 4.93068,-0.917336 9.05869,-0.917336 4.47202,0 8.14136,1.261337 3.66935,1.14667 6.19202,4.013345 2.63734,2.866675 4.01334,7.797356 1.49068,4.816014 1.49068,12.040034 v 36.34944 h -9.86137 v -35.54677 q 0,-8.944026 -2.29334,-13.072038 -2.29334,-4.128012 -8.60002,-4.128012 -3.32534,0 -7.45336,1.14667 v 51.60015 h -9.86136 z"
       style="font-style:normal;font-variant:normal;font-weight:normal;font-stretch:normal;font-size:114.66699982px;font-family:'Ubuntu Condensed';-inkscape-font-specification:'Ubuntu Condensed, ';text-align:end;text-anchor:end;fill:#000080"
       id="path2131" />
    <path
       d="m 334.43293,109.20716 q 0.11467,4.35735 0.80267,8.02669 0.688,3.55468 2.17867,6.30669 1.60534,2.63734 4.12802,4.12801 2.63734,1.49067 6.65068,1.49067 3.32535,0 6.07735,-0.91734 2.86668,-1.032 4.12802,-1.72 l 1.83467,7.91202 q -1.49067,1.032 -5.04535,2.17867 -3.44001,1.26134 -8.25602,1.26134 -6.30669,0 -10.66404,-2.29334 -4.24267,-2.29334 -6.99468,-6.42135 -2.63734,-4.12801 -3.78401,-9.86136 -1.14667,-5.73335 -1.14667,-12.61337 0,-16.626718 5.50401,-24.309407 5.50402,-7.682689 14.56271,-7.682689 10.20536,0 14.44804,7.682689 4.24268,7.682689 4.24268,21.557397 0,1.26134 0,2.63734 0,1.26134 -0.11466,2.63734 z m 9.97603,-26.144075 q -4.93068,0 -7.22402,4.930681 -2.17867,4.930681 -2.63734,13.186704 h 18.23205 q 0,-8.37069 -1.72,-13.186704 -1.72001,-4.930681 -6.65069,-4.930681 z"
       style="font-style:normal;font-variant:normal;font-weight:normal;font-stretch:normal;font-size:114.66699982px;font-family:'Ubuntu Condensed';-inkscape-font-specification:'Ubuntu Condensed, ';text-align:end;text-anchor:end;fill:#000080"
       id="path2133" />
    <path
       d="m 386.83561,76.183065 h 15.13605 v 8.485358 h -15.13605 v 33.138767 q 0,6.19201 2.17868,8.71469 2.29334,2.408 6.07735,2.408 1.94934,0 3.66934,-0.57333 1.83467,-0.57334 3.09601,-1.376 l 1.94934,7.91202 q -4.70135,2.75201 -9.97603,2.75201 -8.48536,0 -12.72804,-4.70135 -4.12801,-4.81601 -4.12801,-15.82405 V 60.015018 l 9.86136,-1.720005 z"
       style="font-style:normal;font-variant:normal;font-weight:normal;font-stretch:normal;font-size:114.66699982px;font-family:'Ubuntu Condensed';-inkscape-font-specification:'Ubuntu Condensed, ';text-align:end;text-anchor:end;fill:#000080"
       id="path2135" />
    <path
       d="m 424.33163,136.38324 h -9.86136 V 76.183065 h 9.86136 z m -4.93068,-70.864206 q -2.63734,0 -4.58668,-1.720005 -1.83467,-1.834672 -1.83467,-4.816014 0,-2.981342 1.83467,-4.701347 1.94934,-1.834672 4.58668,-1.834672 2.63734,0 4.47201,1.834672 1.94934,1.720005 1.94934,4.701347 0,2.981342 -1.94934,4.816014 -1.83467,1.720005 -4.47201,1.720005 z"
       style="font-style:normal;font-variant:normal;font-weight:normal;font-stretch:normal;font-size:114.66699982px;font-family:'Ubuntu Condensed';-inkscape-font-specification:'Ubuntu Condensed, ';text-align:end;text-anchor:end;fill:#000080"
       id="path2137" />
    <path
       d="m 460.56624,137.87391 q -6.19202,0 -10.32003,-2.40801 -4.12801,-2.408 -6.76535,-6.53602 -2.52268,-4.24267 -3.66935,-9.97602 -1.032,-5.73335 -1.032,-12.49871 0,-14.906707 5.38935,-23.277398 5.50402,-8.485358 16.51205,-8.485358 3.32534,0 5.96268,0.802669 2.63734,0.802669 4.93068,2.064006 l -2.52267,8.141357 q -3.55468,-2.29334 -7.91202,-2.29334 -6.19202,0 -9.17336,5.618683 -2.86668,5.618683 -2.86668,17.429381 0,4.93068 0.57334,9.17336 0.57333,4.12801 1.94933,7.10936 1.49068,2.98134 3.78402,4.70134 2.408,1.72001 6.07735,1.72001 2.52267,0 4.47201,-0.57334 2.06401,-0.688 3.89868,-1.72 l 2.17867,7.68269 q -1.83467,1.26133 -4.93068,2.29334 -2.98134,1.032 -6.53602,1.032 z"
       style="font-style:normal;font-variant:normal;font-weight:normal;font-stretch:normal;font-size:114.66699982px;font-family:'Ubuntu Condensed';-inkscape-font-specification:'Ubuntu Condensed, ';text-align:end;text-anchor:end;fill:#000080"
       id="path2139" />
    <path
       d="m 492.55821,136.38324 h -9.86136 V 76.183065 h 9.86136 z m -4.93068,-70.864206 q -2.63734,0 -4.58668,-1.720005 -1.83468,-1.834672 -1.83468,-4.816014 0,-2.981342 1.83468,-4.701347 1.94934,-1.834672 4.58668,-1.834672 2.63734,0 4.47201,1.834672 1.94934,1.720005 1.94934,4.701347 0,2.981342 -1.94934,4.816014 -1.83467,1.720005 -4.47201,1.720005 z"
       style="font-style:normal;font-variant:normal;font-weight:normal;font-stretch:normal;font-size:114.66699982px;font-family:'Ubuntu Condensed';-inkscape-font-specification:'Ubuntu Condensed, ';text-align:end;text-anchor:end;fill:#000080"
       id="path2141" />
  </g>
  <g
     aria-label="Bina Yönetim Sistemi"
     style="font-style:normal;font-weight:normal;font-size:42.66669846px;line-height:1.25;font-family:sans-serif;letter-spacing:0px;word-spacing:0px;fill:#000000;fill-opacity:1;stroke:none"
     id="text1511-0">
    <path
       d="m 171.78806,179.33488 h 2.64533 q 5.29067,0 5.29067,-4.77867 0,-1.49334 -0.46933,-2.432 -0.42667,-0.98134 -1.152,-1.49334 -0.72534,-0.55467 -1.70667,-0.768 -0.93867,-0.21333 -2.00534,-0.21333 -0.64,0 -1.32266,0.0427 -0.64,0.0427 -1.28,0.128 z m 0,3.072 v 10.66667 q 0.81066,0.128 1.57866,0.21334 0.81067,0.0853 1.57867,0.0853 1.19467,0 2.26134,-0.256 1.06666,-0.256 1.83467,-0.85333 0.81066,-0.59734 1.23733,-1.62134 0.46933,-1.06667 0.46933,-2.60267 0,-2.64533 -1.45066,-4.13867 -1.40801,-1.49333 -4.43734,-1.49333 z m -3.84001,-15.23201 q 1.49334,-0.34134 3.02934,-0.512 1.57867,-0.21334 3.11467,-0.21334 1.92,0 3.62667,0.384 1.74933,0.34134 3.072,1.23734 1.32267,0.85333 2.09067,2.304 0.81067,1.408 0.81067,3.54134 0,2.64533 -1.10934,4.352 -1.10933,1.664 -2.85867,2.47467 2.176,0.85333 3.584,2.60267 1.40801,1.74933 1.40801,4.82133 0,2.30401 -0.768,3.88267 -0.72534,1.57867 -2.09067,2.60267 -1.36534,0.98134 -3.28534,1.45067 -1.87733,0.42667 -4.13867,0.42667 -1.49333,0 -3.11467,-0.17067 -1.62133,-0.17067 -3.37067,-0.512 z"
       style="font-style:normal;font-variant:normal;font-weight:normal;font-stretch:normal;font-size:42.66669846px;font-family:'Ubuntu Condensed';-inkscape-font-specification:'Ubuntu Condensed, ';text-align:end;text-anchor:end;fill:#808080"
       id="path2144" />
    <path
       d="m 193.59073,196.31622 h -3.66933 v -22.40001 h 3.66933 z m -1.83466,-26.36802 q -0.98134,0 -1.70667,-0.64 -0.68267,-0.68266 -0.68267,-1.792 0,-1.10933 0.68267,-1.74933 0.72533,-0.68267 1.70667,-0.68267 0.98133,0 1.664,0.68267 0.72533,0.64 0.72533,1.74933 0,1.10934 -0.72533,1.792 -0.68267,0.64 -1.664,0.64 z"
       style="font-style:normal;font-variant:normal;font-weight:normal;font-stretch:normal;font-size:42.66669846px;font-family:'Ubuntu Condensed';-inkscape-font-specification:'Ubuntu Condensed, ';text-align:end;text-anchor:end;fill:#808080"
       id="path2146" />
    <path
       d="m 200.24668,174.55621 q 1.57867,-0.46934 3.41334,-0.768 1.83467,-0.34134 3.37067,-0.34134 1.664,0 3.02933,0.46934 1.36534,0.42666 2.30401,1.49333 0.98133,1.06667 1.49333,2.90134 0.55467,1.792 0.55467,4.48 v 13.52534 h -3.66934 v -13.22667 q 0,-3.32801 -0.85333,-4.86401 -0.85334,-1.536 -3.2,-1.536 -1.23734,0 -2.77334,0.42667 v 19.20001 h -3.66934 z"
       style="font-style:normal;font-variant:normal;font-weight:normal;font-stretch:normal;font-size:42.66669846px;font-family:'Ubuntu Condensed';-inkscape-font-specification:'Ubuntu Condensed, ';text-align:end;text-anchor:end;fill:#808080"
       id="path2148" />
    <path
       d="m 221.1533,174.38554 q 1.10933,-0.46933 2.34667,-0.72533 1.23733,-0.29867 2.688,-0.29867 2.98667,0 4.864,1.87733 1.87734,1.83467 1.87734,5.76001 v 14.84801 q -1.536,0.42667 -3.15734,0.68267 -1.57867,0.256 -3.11467,0.256 -1.536,0 -2.90133,-0.384 -1.32267,-0.384 -2.34667,-1.23734 -0.98134,-0.85333 -1.57867,-2.13333 -0.59733,-1.32267 -0.59733,-3.20001 0,-1.74933 0.512,-3.02933 0.55466,-1.32267 1.49333,-2.176 0.93867,-0.896 2.21867,-1.32267 1.28,-0.46933 2.77334,-0.46933 1.408,0 3.11466,0.34133 v -2.048 q 0,-2.47467 -0.98133,-3.456 -0.93867,-0.98134 -2.73067,-0.98134 -0.98133,0 -1.87733,0.21334 -0.85334,0.17066 -1.83467,0.59733 z m 1.74933,15.40268 q 0,1.96267 1.024,2.90133 1.024,0.93867 2.90134,0.93867 1.152,0 2.51733,-0.29867 v -7.12533 q -1.28,-0.34134 -2.51733,-0.34134 -0.81067,0 -1.536,0.21334 -0.72534,0.17066 -1.28,0.64 -0.512,0.42666 -0.81067,1.19466 -0.29867,0.72534 -0.29867,1.87734 z"
       style="font-style:normal;font-variant:normal;font-weight:normal;font-stretch:normal;font-size:42.66669846px;font-family:'Ubuntu Condensed';-inkscape-font-specification:'Ubuntu Condensed, ';text-align:end;text-anchor:end;fill:#808080"
       id="path2150" />
    <path
       d="m 263.4359,166.7482 q -0.72533,2.00534 -1.62133,4.26667 -0.85334,2.26134 -1.83467,4.608 -0.98134,2.30401 -2.00534,4.60801 -1.024,2.304 -2.048,4.39467 v 11.69067 h -3.84 v -11.43467 q -1.024,-2.09067 -2.09067,-4.43734 -1.06667,-2.34667 -2.048,-4.69334 -0.98134,-2.34666 -1.87734,-4.65067 -0.896,-2.304 -1.62133,-4.352 h 4.13867 q 1.10933,3.37067 2.51733,7.12534 1.40801,3.75467 2.90134,6.99734 1.49333,-3.24267 2.90134,-6.99734 1.408,-3.75467 2.51733,-7.12534 z"
       style="font-style:normal;font-variant:normal;font-weight:normal;font-stretch:normal;font-size:42.66669846px;font-family:'Ubuntu Condensed';-inkscape-font-specification:'Ubuntu Condensed, ';text-align:end;text-anchor:end;fill:#808080"
       id="path2152" />
    <path
       d="m 279.35051,185.13755 q 0,2.64533 -0.46934,4.82134 -0.46933,2.13333 -1.45066,3.66933 -0.93867,1.536 -2.43201,2.38934 -1.45066,0.85333 -3.456,0.85333 -2.00533,0 -3.49867,-0.85333 -1.49333,-0.85334 -2.47467,-2.38934 -0.93866,-1.536 -1.408,-3.66933 -0.46933,-2.17601 -0.46933,-4.82134 0,-2.60267 0.46933,-4.77867 0.46934,-2.176 1.408,-3.712 0.98134,-1.57867 2.47467,-2.43201 1.49334,-0.85333 3.49867,-0.85333 2.00534,0 3.456,0.85333 1.49334,0.85334 2.43201,2.43201 0.98133,1.536 1.45066,3.712 0.46934,2.176 0.46934,4.77867 z m -3.84,0 q 0,-1.87734 -0.21334,-3.41334 -0.21333,-1.57867 -0.68267,-2.688 -0.46933,-1.152 -1.23733,-1.74933 -0.768,-0.64 -1.83467,-0.64 -1.10933,0 -1.87733,0.64 -0.72534,0.59733 -1.23734,1.74933 -0.46933,1.10933 -0.68266,2.688 -0.21334,1.536 -0.21334,3.41334 0,1.87733 0.21334,3.456 0.21333,1.536 0.68266,2.64534 0.512,1.10933 1.23734,1.74933 0.768,0.59733 1.87733,0.59733 1.06667,0 1.83467,-0.59733 0.768,-0.64 1.23733,-1.74933 0.46934,-1.10934 0.68267,-2.64534 0.21334,-1.57867 0.21334,-3.456 z M 267.9585,169.9482 q -0.98133,0 -1.70667,-0.64 -0.68267,-0.68266 -0.68267,-1.792 0,-1.10933 0.68267,-1.74933 0.72534,-0.68267 1.70667,-0.68267 0.98133,0 1.664,0.68267 0.72533,0.64 0.72533,1.74933 0,1.10934 -0.72533,1.792 -0.68267,0.64 -1.664,0.64 z m 7.08267,0 q -0.98133,0 -1.70667,-0.64 -0.68266,-0.68266 -0.68266,-1.792 0,-1.10933 0.68266,-1.74933 0.72534,-0.68267 1.70667,-0.68267 0.98134,0 1.664,0.68267 0.72534,0.64 0.72534,1.74933 0,1.10934 -0.72534,1.792 -0.68266,0.64 -1.664,0.64 z"
       style="font-style:normal;font-variant:normal;font-weight:normal;font-stretch:normal;font-size:42.66669846px;font-family:'Ubuntu Condensed';-inkscape-font-specification:'Ubuntu Condensed, ';text-align:end;text-anchor:end;fill:#808080"
       id="path2154" />
    <path
       d="m 284.72648,174.55621 q 1.57867,-0.46934 3.41334,-0.768 1.83467,-0.34134 3.37067,-0.34134 1.664,0 3.02934,0.46934 1.36533,0.42666 2.304,1.49333 0.98133,1.06667 1.49333,2.90134 0.55467,1.792 0.55467,4.48 v 13.52534 h -3.66934 v -13.22667 q 0,-3.32801 -0.85333,-4.86401 -0.85334,-1.536 -3.2,-1.536 -1.23734,0 -2.77334,0.42667 v 19.20001 h -3.66934 z"
       style="font-style:normal;font-variant:normal;font-weight:normal;font-stretch:normal;font-size:42.66669846px;font-family:'Ubuntu Condensed';-inkscape-font-specification:'Ubuntu Condensed, ';text-align:end;text-anchor:end;fill:#808080"
       id="path2156" />
    <path
       d="m 307.8091,186.20422 q 0.0427,1.62133 0.29867,2.98666 0.256,1.32267 0.81067,2.34667 0.59733,0.98134 1.536,1.536 0.98133,0.55467 2.47467,0.55467 1.23733,0 2.26133,-0.34133 1.06667,-0.384 1.536,-0.64 l 0.68267,2.944 q -0.55467,0.384 -1.87733,0.81067 -1.28,0.46933 -3.07201,0.46933 -2.34666,0 -3.968,-0.85333 -1.57867,-0.85334 -2.60267,-2.38934 -0.98133,-1.536 -1.408,-3.66933 -0.42666,-2.13334 -0.42666,-4.69334 0,-6.18667 2.048,-9.04534 2.048,-2.85867 5.41867,-2.85867 3.79733,0 5.376,2.85867 1.57867,2.85867 1.57867,8.02134 0,0.46933 0,0.98133 0,0.46934 -0.0427,0.98134 z m 3.71201,-9.72801 q -1.83467,0 -2.688,1.83467 -0.81067,1.83466 -0.98134,4.90667 h 6.78401 q 0,-3.11467 -0.64,-4.90667 -0.64,-1.83467 -2.47467,-1.83467 z"
       style="font-style:normal;font-variant:normal;font-weight:normal;font-stretch:normal;font-size:42.66669846px;font-family:'Ubuntu Condensed';-inkscape-font-specification:'Ubuntu Condensed, ';text-align:end;text-anchor:end;fill:#808080"
       id="path2158" />
    <path
       d="m 327.30774,173.91621 h 5.632 v 3.15733 h -5.632 v 12.33068 q 0,2.304 0.81066,3.24267 0.85334,0.896 2.26134,0.896 0.72533,0 1.36533,-0.21334 0.68267,-0.21333 1.152,-0.512 l 0.72534,2.94401 q -1.74934,1.024 -3.71201,1.024 -3.15733,0 -4.736,-1.74934 -1.536,-1.792 -1.536,-5.888 V 167.9002 l 3.66934,-0.64 z"
       style="font-style:normal;font-variant:normal;font-weight:normal;font-stretch:normal;font-size:42.66669846px;font-family:'Ubuntu Condensed';-inkscape-font-specification:'Ubuntu Condensed, ';text-align:end;text-anchor:end;fill:#808080"
       id="path2160" />
    <path
       d="m 341.2597,196.31622 h -3.66933 v -22.40001 h 3.66933 z m -1.83466,-26.36802 q -0.98134,0 -1.70667,-0.64 -0.68267,-0.68266 -0.68267,-1.792 0,-1.10933 0.68267,-1.74933 0.72533,-0.68267 1.70667,-0.68267 0.98133,0 1.664,0.68267 0.72533,0.64 0.72533,1.74933 0,1.10934 -0.72533,1.792 -0.68267,0.64 -1.664,0.64 z"
       style="font-style:normal;font-variant:normal;font-weight:normal;font-stretch:normal;font-size:42.66669846px;font-family:'Ubuntu Condensed';-inkscape-font-specification:'Ubuntu Condensed, ';text-align:end;text-anchor:end;fill:#808080"
       id="path2162" />
    <path
       d="m 347.91566,174.55621 q 1.49333,-0.46934 3.24266,-0.768 1.74934,-0.34134 3.20001,-0.34134 1.49333,0 2.688,0.384 1.23733,0.384 2.176,1.28 1.10933,-0.72533 2.38934,-1.19466 1.28,-0.46934 2.816,-0.46934 1.536,0 2.77333,0.46934 1.28,0.42666 2.176,1.49333 0.89601,1.06667 1.40801,2.90134 0.512,1.792 0.512,4.48 v 13.52534 h -3.66934 v -13.22667 q 0,-3.32801 -0.768,-4.86401 -0.768,-1.536 -2.90134,-1.536 -0.81066,0 -1.664,0.29867 -0.81066,0.29867 -1.536,0.81067 0.34134,0.98133 0.512,2.21866 0.17067,1.23734 0.17067,2.77334 v 13.52534 h -3.66934 v -13.22667 q 0,-3.32801 -0.768,-4.86401 -0.768,-1.536 -2.90133,-1.536 -1.10934,0 -2.51734,0.42667 v 19.20001 h -3.66933 z"
       style="font-style:normal;font-variant:normal;font-weight:normal;font-stretch:normal;font-size:42.66669846px;font-family:'Ubuntu Condensed';-inkscape-font-specification:'Ubuntu Condensed, ';text-align:end;text-anchor:end;fill:#808080"
       id="path2164" />
    <path
       d="m 389.94234,193.67089 q 2.304,0 3.54134,-1.28 1.28,-1.28 1.28,-3.45601 0,-1.152 -0.384,-2.048 -0.384,-0.896 -1.024,-1.62133 -0.59734,-0.72534 -1.408,-1.32267 -0.81067,-0.59733 -1.66401,-1.19467 -0.98133,-0.68266 -2.048,-1.45066 -1.06666,-0.76801 -1.96267,-1.79201 -0.85333,-1.024 -1.408,-2.38933 -0.55466,-1.36534 -0.55466,-3.2 0,-1.792 0.59733,-3.24267 0.64,-1.45067 1.70667,-2.47467 1.10933,-1.024 2.60267,-1.57867 1.536,-0.55467 3.28533,-0.55467 1.70667,0 3.15734,0.42667 1.45067,0.42667 2.432,1.024 l -1.19467,3.02934 q -0.896,-0.59734 -1.96267,-0.896 -1.024,-0.34134 -2.176,-0.34134 -2.09067,0 -3.37067,1.152 -1.23733,1.10934 -1.23733,3.28534 0,1.19467 0.384,2.09067 0.42667,0.896 1.06667,1.62133 0.68266,0.72534 1.536,1.32267 0.896,0.59733 1.87733,1.23733 0.98134,0.64 2.00534,1.40801 1.024,0.768 1.83467,1.792 0.85333,0.98133 1.36533,2.34667 0.55467,1.32266 0.55467,3.15733 0,1.664 -0.512,3.15734 -0.512,1.49333 -1.62134,2.64533 -1.06667,1.10934 -2.73067,1.792 -1.62133,0.64 -3.84,0.64 -2.048,0 -3.584,-0.46933 -1.536,-0.46933 -2.73067,-1.23733 l 1.19467,-3.07201 q 1.10933,0.68267 2.26133,1.10934 1.19467,0.384 2.73067,0.384 z"
       style="font-style:normal;font-variant:normal;font-weight:normal;font-stretch:normal;font-size:42.66669846px;font-family:'Ubuntu Condensed';-inkscape-font-specification:'Ubuntu Condensed, ';text-align:end;text-anchor:end;fill:#808080"
       id="path2166" />
    <path
       d="m 406.75301,196.31622 h -3.66934 v -22.40001 h 3.66934 z m -1.83467,-26.36802 q -0.98134,0 -1.70667,-0.64 -0.68267,-0.68266 -0.68267,-1.792 0,-1.10933 0.68267,-1.74933 0.72533,-0.68267 1.70667,-0.68267 0.98133,0 1.664,0.68267 0.72533,0.64 0.72533,1.74933 0,1.10934 -0.72533,1.792 -0.68267,0.64 -1.664,0.64 z"
       style="font-style:normal;font-variant:normal;font-weight:normal;font-stretch:normal;font-size:42.66669846px;font-family:'Ubuntu Condensed';-inkscape-font-specification:'Ubuntu Condensed, ';text-align:end;text-anchor:end;fill:#808080"
       id="path2168" />
    <path
       d="m 416.52363,193.71355 q 1.62133,0 2.432,-0.896 0.85333,-0.93866 0.85333,-2.432 0,-0.93867 -0.34133,-1.57867 -0.34134,-0.68266 -0.896,-1.19466 -0.55467,-0.512 -1.28,-0.896 -0.72534,-0.42667 -1.45067,-0.896 -0.72534,-0.42667 -1.408,-0.98134 -0.68267,-0.59733 -1.23734,-1.32267 -0.512,-0.768 -0.85333,-1.70666 -0.29867,-0.98134 -0.29867,-2.26134 0,-2.77333 1.70667,-4.48 1.74934,-1.70667 4.69334,-1.70667 1.23733,0 2.34667,0.34133 1.10933,0.29867 1.83466,0.68267 l -0.81066,2.944 q -0.768,-0.42666 -1.536,-0.64 -0.76801,-0.21333 -1.66401,-0.21333 -1.36533,0 -2.176,0.81067 -0.81066,0.768 -0.81066,2.26133 0,0.85333 0.29866,1.49334 0.29867,0.59733 0.768,1.10933 0.512,0.46933 1.10934,0.896 0.64,0.42667 1.32266,0.81067 0.81067,0.46933 1.57867,1.024 0.81067,0.55467 1.408,1.32267 0.64,0.72533 1.024,1.74933 0.384,0.98133 0.384,2.38934 0,2.944 -1.74933,4.736 -1.70667,1.792 -5.03467,1.792 -1.70667,0 -3.072,-0.46933 -1.36534,-0.46934 -2.048,-0.85334 l 0.768,-3.02933 q 0.64,0.34133 1.70666,0.768 1.10934,0.42666 2.43201,0.42666 z"
       style="font-style:normal;font-variant:normal;font-weight:normal;font-stretch:normal;font-size:42.66669846px;font-family:'Ubuntu Condensed';-inkscape-font-specification:'Ubuntu Condensed, ';text-align:end;text-anchor:end;fill:#808080"
       id="path2170" />
    <path
       d="m 431.37162,173.91621 h 5.63201 v 3.15733 h -5.63201 v 12.33068 q 0,2.304 0.81067,3.24267 0.85334,0.896 2.26134,0.896 0.72533,0 1.36533,-0.21334 0.68267,-0.21333 1.152,-0.512 l 0.72534,2.94401 q -1.74934,1.024 -3.71201,1.024 -3.15733,0 -4.736,-1.74934 -1.536,-1.792 -1.536,-5.888 V 167.9002 l 3.66933,-0.64 z"
       style="font-style:normal;font-variant:normal;font-weight:normal;font-stretch:normal;font-size:42.66669846px;font-family:'Ubuntu Condensed';-inkscape-font-specification:'Ubuntu Condensed, ';text-align:end;text-anchor:end;fill:#808080"
       id="path2172" />
    <path
       d="m 443.9582,186.20422 q 0.0427,1.62133 0.29867,2.98666 0.256,1.32267 0.81066,2.34667 0.59734,0.98134 1.536,1.536 0.98134,0.55467 2.47467,0.55467 1.23734,0 2.26134,-0.34133 1.06666,-0.384 1.536,-0.64 l 0.68267,2.944 q -0.55467,0.384 -1.87734,0.81067 -1.28,0.46933 -3.072,0.46933 -2.34667,0 -3.968,-0.85333 -1.57867,-0.85334 -2.60267,-2.38934 -0.98134,-1.536 -1.408,-3.66933 -0.42667,-2.13334 -0.42667,-4.69334 0,-6.18667 2.048,-9.04534 2.048,-2.85867 5.41867,-2.85867 3.79734,0 5.37601,2.85867 1.57866,2.85867 1.57866,8.02134 0,0.46933 0,0.98133 0,0.46934 -0.0427,0.98134 z m 3.712,-9.72801 q -1.83467,0 -2.688,1.83467 -0.81067,1.83466 -0.98133,4.90667 h 6.784 q 0,-3.11467 -0.64,-4.90667 -0.64,-1.83467 -2.47467,-1.83467 z"
       style="font-style:normal;font-variant:normal;font-weight:normal;font-stretch:normal;font-size:42.66669846px;font-family:'Ubuntu Condensed';-inkscape-font-specification:'Ubuntu Condensed, ';text-align:end;text-anchor:end;fill:#808080"
       id="path2174" />
    <path
       d="m 460.04349,174.55621 q 1.49334,-0.46934 3.24267,-0.768 1.74934,-0.34134 3.20001,-0.34134 1.49333,0 2.688,0.384 1.23733,0.384 2.176,1.28 1.10933,-0.72533 2.38933,-1.19466 1.28,-0.46934 2.81601,-0.46934 1.536,0 2.77333,0.46934 1.28,0.42666 2.176,1.49333 0.896,1.06667 1.408,2.90134 0.512,1.792 0.512,4.48 v 13.52534 h -3.66933 v -13.22667 q 0,-3.32801 -0.768,-4.86401 -0.768,-1.536 -2.90134,-1.536 -0.81066,0 -1.664,0.29867 -0.81067,0.29867 -1.536,0.81067 0.34133,0.98133 0.512,2.21866 0.17067,1.23734 0.17067,2.77334 v 13.52534 h -3.66934 v -13.22667 q 0,-3.32801 -0.768,-4.86401 -0.768,-1.536 -2.90134,-1.536 -1.10933,0 -2.51733,0.42667 v 19.20001 h -3.66934 z"
       style="font-style:normal;font-variant:normal;font-weight:normal;font-stretch:normal;font-size:42.66669846px;font-family:'Ubuntu Condensed';-inkscape-font-specification:'Ubuntu Condensed, ';text-align:end;text-anchor:end;fill:#808080"
       id="path2176" />
    <path
       d="m 493.4942,196.31622 h -3.66933 v -22.40001 h 3.66933 z m -1.83467,-26.36802 q -0.98133,0 -1.70666,-0.64 -0.68267,-0.68266 -0.68267,-1.792 0,-1.10933 0.68267,-1.74933 0.72533,-0.68267 1.70666,-0.68267 0.98134,0 1.66401,0.68267 0.72533,0.64 0.72533,1.74933 0,1.10934 -0.72533,1.792 -0.68267,0.64 -1.66401,0.64 z"
       style="font-style:normal;font-variant:normal;font-weight:normal;font-stretch:normal;font-size:42.66669846px;font-family:'Ubuntu Condensed';-inkscape-font-specification:'Ubuntu Condensed, ';text-align:end;text-anchor:end;fill:#808080"
       id="path2178" />
  </g>
  <g
     aria-label="akıllı"
     style="font-style:normal;font-weight:normal;font-size:114.66699982px;line-height:1.25;font-family:sans-serif;letter-spacing:0px;word-spacing:0px;fill:#000000;fill-opacity:1;stroke:none"
     id="text1511-3">
    <path
       d="m 430.77698,33.556224 q 0.704,0 1.344,-0.032 0.64,-0.032 1.024,-0.096 v -3.616 q -0.288,-0.064 -0.864,-0.128 -0.576,-0.064 -1.056,-0.064 -0.672,0 -1.28,0.096 -0.576,0.064 -1.024,0.288 -0.448,0.224 -0.704,0.608 -0.256,0.384 -0.256,0.96 0,1.12 0.736,1.568 0.768,0.416 2.08,0.416 z m -0.384,-13.952 q 2.112,0 3.52,0.48 1.408,0.48 2.24,1.376 0.864,0.896 1.216,2.176 0.352,1.28 0.352,2.848 v 9.92 q -1.024,0.224 -2.848,0.512 -1.824,0.32 -4.416,0.32 -1.632,0 -2.976,-0.288 -1.312,-0.288 -2.272,-0.928 -0.96,-0.672 -1.472,-1.728 -0.512,-1.056 -0.512,-2.592 0,-1.472 0.576,-2.496 0.608,-1.024 1.6,-1.632 0.992,-0.608 2.272,-0.864 1.28,-0.288 2.656,-0.288 0.928,0 1.632,0.096 0.736,0.064 1.184,0.192 v -0.448 q 0,-1.216 -0.736,-1.952 -0.736,-0.736 -2.56,-0.736 -1.216,0 -2.4,0.192 -1.184,0.16 -2.048,0.48 l -0.608,-3.84 q 0.416,-0.128 1.024,-0.256 0.64,-0.16 1.376,-0.256 0.736,-0.128 1.536,-0.192 0.832,-0.096 1.664,-0.096 z"
       style="font-style:normal;font-variant:normal;font-weight:bold;font-stretch:normal;font-size:32px;font-family:Ubuntu;-inkscape-font-specification:'Ubuntu Bold';text-align:end;text-anchor:end;fill:#808080"
       id="path2181" />
    <path
       d="m 446.80896,26.132224 q 0.704,-0.768 1.44,-1.6 0.768,-0.832 1.472,-1.632 0.704,-0.832 1.312,-1.568 0.64,-0.736 1.088,-1.28 h 5.664 q -1.696,1.952 -3.328,3.744 -1.6,1.76 -3.52,3.648 0.96,0.864 1.984,2.08 1.024,1.184 1.984,2.464 0.96,1.28 1.76,2.56 0.8,1.28 1.344,2.336 h -5.472 q -0.512,-0.832 -1.184,-1.824 -0.64,-1.024 -1.376,-2.016 -0.736,-1.024 -1.568,-1.952 -0.8,-0.928 -1.6,-1.568 v 7.36 h -4.768 v -24.064 l 4.768,-0.768 z"
       style="font-style:normal;font-variant:normal;font-weight:bold;font-stretch:normal;font-size:32px;font-family:Ubuntu;-inkscape-font-specification:'Ubuntu Bold';text-align:end;text-anchor:end;fill:#808080"
       id="path2183" />
    <path
       d="m 465.33692,36.884224 h -4.768 v -16.832 h 4.768 z"
       style="font-style:normal;font-variant:normal;font-weight:bold;font-stretch:normal;font-size:32px;font-family:Ubuntu;-inkscape-font-specification:'Ubuntu Bold';text-align:end;text-anchor:end;fill:#808080"
       id="path2185" />
    <path
       d="m 476.5369,37.204224 q -2.08,-0.032 -3.392,-0.448 -1.28,-0.416 -2.048,-1.152 -0.736,-0.768 -1.024,-1.824 -0.256,-1.088 -0.256,-2.432 v -18.528 l 4.768,-0.768 v 18.336 q 0,0.64 0.096,1.152 0.096,0.512 0.352,0.864 0.288,0.352 0.8,0.576 0.512,0.224 1.376,0.288 z"
       style="font-style:normal;font-variant:normal;font-weight:bold;font-stretch:normal;font-size:32px;font-family:Ubuntu;-inkscape-font-specification:'Ubuntu Bold';text-align:end;text-anchor:end;fill:#808080"
       id="path2187" />
    <path
       d="m 486.6489,37.204224 q -2.08,-0.032 -3.392,-0.448 -1.28,-0.416 -2.048,-1.152 -0.736,-0.768 -1.024,-1.824 -0.256,-1.088 -0.256,-2.432 v -18.528 l 4.768,-0.768 v 18.336 q 0,0.64 0.096,1.152 0.096,0.512 0.352,0.864 0.288,0.352 0.8,0.576 0.512,0.224 1.376,0.288 z"
       style="font-style:normal;font-variant:normal;font-weight:bold;font-stretch:normal;font-size:32px;font-family:Ubuntu;-inkscape-font-specification:'Ubuntu Bold';text-align:end;text-anchor:end;fill:#808080"
       id="path2189" />
    <path
       d="m 494.8089,36.884224 h -4.768 v -16.832 h 4.768 z"
       style="font-style:normal;font-variant:normal;font-weight:bold;font-stretch:normal;font-size:32px;font-family:Ubuntu;-inkscape-font-specification:'Ubuntu Bold';text-align:end;text-anchor:end;fill:#808080"
       id="path2191" />
  </g>
</svg>
