<?xml version="1.0" encoding="UTF-8" standalone="no"?>
<svg
   enable-background="new 0 0 24 24"
   height="24"
   viewBox="0 0 98 24"
   width="98"
   version="1.1"
   id="svg6"
   sodipodi:docname="app_header_logo.svg"
   style="fill:#000000"
   inkscape:version="1.4 (e7c3feb100, 2024-10-09)"
   inkscape:export-filename="/var/www/html/BesteApt/css/beste.png"
   inkscape:export-xdpi="18"
   inkscape:export-ydpi="18"
   xml:space="preserve"
   xmlns:inkscape="http://www.inkscape.org/namespaces/inkscape"
   xmlns:sodipodi="http://sodipodi.sourceforge.net/DTD/sodipodi-0.dtd"
   xmlns="http://www.w3.org/2000/svg"
   xmlns:svg="http://www.w3.org/2000/svg"
   xmlns:rdf="http://www.w3.org/1999/02/22-rdf-syntax-ns#"
   xmlns:cc="http://creativecommons.org/ns#"
   xmlns:dc="http://purl.org/dc/elements/1.1/"><metadata
     id="metadata12"><rdf:RDF><cc:Work
         rdf:about=""><dc:format>image/svg+xml</dc:format><dc:type
           rdf:resource="http://purl.org/dc/dcmitype/StillImage" /></cc:Work></rdf:RDF></metadata><defs
     id="defs10"><rect
       x="-16.510554"
       y="-26.556132"
       width="7.1612042"
       height="40.779079"
       id="rect4" /></defs><sodipodi:namedview
     pagecolor="#ffffff"
     bordercolor="#666666"
     borderopacity="1"
     objecttolerance="10"
     gridtolerance="10"
     guidetolerance="10"
     inkscape:pageopacity="0"
     inkscape:pageshadow="2"
     inkscape:window-width="1920"
     inkscape:window-height="947"
     id="namedview8"
     showgrid="false"
     inkscape:zoom="10.054175"
     inkscape:cx="43.762914"
     inkscape:cy="11.438034"
     inkscape:window-x="0"
     inkscape:window-y="32"
     inkscape:window-maximized="1"
     inkscape:current-layer="text1511-6"
     inkscape:pagecheckerboard="0"
     inkscape:showpageshadow="2"
     inkscape:deskcolor="#d1d1d1" /><rect
     style="fill:#d4ff2a;stroke:none;stroke-width:0.520714;stroke-opacity:1"
     id="rect3"
     width="24"
     height="24"
     x="3.4059562e-07"
     y="-26.556131" /><rect
     style="fill:#008000;stroke:none;stroke-width:0.836931;stroke-opacity:1"
     id="rect3-9"
     width="62"
     height="24"
     x="24"
     y="-26.556131" /><rect
     height="24"
     width="24"
     id="rect2"
     x="0"
     y="0"
     style="fill:none" /><g
     aria-label="Beste"
     style="font-style:normal;font-weight:normal;font-size:40px;line-height:1.25;font-family:sans-serif;letter-spacing:0px;word-spacing:0px;fill:#000080;fill-opacity:1;stroke:none"
     id="text824-3"
     transform="translate(-9.158462,-7.3406254)"><g
       aria-label="yönetici"
       style="font-style:normal;font-weight:normal;font-size:22.6667px;line-height:1.25;font-family:sans-serif;fill:#000080;fill-opacity:1;stroke:none"
       id="text1511-6"><path
         style="-inkscape-font-specification:'Ubuntu Condensed, '"
         d="m 47.854933,12.298043 q -0.362666,1.002665 -0.810665,2.13333 -0.426666,1.130665 -0.917332,2.303996 -0.490666,1.151999 -1.002665,2.303997 -0.511999,1.151998 -1.023998,2.19733 v 5.845324 h -1.919997 v -5.717324 q -0.512,-1.045332 -1.045332,-2.218664 Q 40.601611,17.972701 40.110946,16.799369 39.62028,15.626038 39.17228,14.47404 38.724281,13.322042 38.361615,12.298043 h 2.06933 q 0.554666,1.685331 1.258665,3.562661 0.703999,1.877331 1.450664,3.498661 0.746666,-1.62133 1.450664,-3.498661 0.703999,-1.87733 1.258665,-3.562661 z m 7.957324,9.194652 q 0,1.322665 -0.234666,2.410663 -0.234667,1.066665 -0.725332,1.834664 -0.469333,0.767999 -1.215999,1.194665 -0.725332,0.426666 -1.727997,0.426666 -1.002665,0 -1.74933,-0.426666 -0.746666,-0.426666 -1.237332,-1.194665 -0.469332,-0.767999 -0.703999,-1.834664 -0.234666,-1.087998 -0.234666,-2.410663 0,-1.301331 0.234666,-2.389329 0.234667,-1.087999 0.703999,-1.855997 0.490666,-0.789332 1.237332,-1.215998 0.746665,-0.426666 1.74933,-0.426666 1.002665,0 1.727997,0.426666 0.746666,0.426666 1.215999,1.215998 0.490665,0.767998 0.725332,1.855997 0.234666,1.087998 0.234666,2.389329 z m -1.919997,0 q 0,-0.938665 -0.106666,-1.706664 -0.106667,-0.789332 -0.341333,-1.343998 -0.234667,-0.575999 -0.618666,-0.874665 -0.383999,-0.319999 -0.917332,-0.319999 -0.554666,0 -0.938665,0.319999 -0.362666,0.298666 -0.618666,0.874665 -0.234666,0.554666 -0.341333,1.343998 -0.106666,0.767999 -0.106666,1.706664 0,0.938665 0.106666,1.727998 0.106667,0.767998 0.341333,1.322664 0.256,0.554666 0.618666,0.874665 0.383999,0.298667 0.938665,0.298667 0.533333,0 0.917332,-0.298667 0.383999,-0.319999 0.618666,-0.874665 0.234666,-0.554666 0.341333,-1.322664 0.106666,-0.789333 0.106666,-1.727998 z m -3.775994,-7.594654 q -0.490666,0 -0.853332,-0.32 -0.341333,-0.341333 -0.341333,-0.895998 0,-0.554666 0.341333,-0.874666 0.362666,-0.341333 0.853332,-0.341333 0.490666,0 0.831999,0.341333 0.362666,0.32 0.362666,0.874666 0,0.554665 -0.362666,0.895998 -0.341333,0.32 -0.831999,0.32 z m 3.541328,0 q -0.490666,0 -0.853332,-0.32 -0.341333,-0.341333 -0.341333,-0.895998 0,-0.554666 0.341333,-0.874666 0.362666,-0.341333 0.853332,-0.341333 0.490666,0 0.831998,0.341333 0.362667,0.32 0.362667,0.874666 0,0.554665 -0.362667,0.895998 -0.341332,0.32 -0.831998,0.32 z m 4.842646,2.303996 q 0.789332,-0.234666 1.706664,-0.383999 0.917332,-0.170667 1.685331,-0.170667 0.831998,0 1.514664,0.234666 0.682666,0.213333 1.151998,0.746666 0.490666,0.533332 0.746666,1.450664 0.277333,0.895999 0.277333,2.239997 v 6.762656 h -1.834664 v -6.613323 q 0,-1.663997 -0.426666,-2.431996 -0.426666,-0.767999 -1.599998,-0.767999 -0.618665,0 -1.386664,0.213333 V 27.08202 H 58.50024 Z m 11.541322,5.823991 q 0.02133,0.810665 0.149333,1.493331 0.128,0.661332 0.405333,1.173331 0.298666,0.490666 0.767999,0.767999 0.490666,0.277333 1.237331,0.277333 0.618666,0 1.130665,-0.170666 0.533333,-0.192 0.767999,-0.32 l 0.341333,1.471998 q -0.277333,0.191999 -0.938665,0.405332 -0.639999,0.234667 -1.535998,0.234667 -1.173331,0 -1.983997,-0.426666 -0.789332,-0.426666 -1.301331,-1.194665 -0.490666,-0.767999 -0.703999,-1.834664 -0.213333,-1.066665 -0.213333,-2.346663 0,-3.093328 1.023998,-4.522659 1.023999,-1.429331 2.709329,-1.429331 1.898664,0 2.687996,1.429331 0.789332,1.429331 0.789332,4.01066 0,0.234666 0,0.490666 0,0.234666 -0.02133,0.490666 z m 1.855997,-4.863993 q -0.917331,0 -1.343997,0.917332 -0.405333,0.917332 -0.490666,2.45333 h 3.391994 q 0,-1.557331 -0.319999,-2.45333 -0.32,-0.917332 -1.237332,-0.917332 z m 7.893337,-1.279998 h 2.815996 v 1.578665 h -2.815996 v 6.165323 q 0,1.151998 0.405333,1.621331 0.426666,0.447999 1.130665,0.447999 0.362666,0 0.682665,-0.106666 0.341333,-0.106667 0.575999,-0.256 l 0.362666,1.471998 q -0.874665,0.511999 -1.855997,0.511999 -1.578664,0 -2.367996,-0.874665 -0.767999,-0.895999 -0.767999,-2.943996 V 12.874042 l 1.834664,-0.319999 z M 86.766869,27.08202 H 84.932205 V 15.882037 h 1.834664 z M 85.849537,13.898041 q -0.490666,0 -0.853332,-0.32 -0.341333,-0.341333 -0.341333,-0.895998 0,-0.554666 0.341333,-0.874666 0.362666,-0.341333 0.853332,-0.341333 0.490666,0 0.831998,0.341333 0.362667,0.32 0.362667,0.874666 0,0.554665 -0.362667,0.895998 -0.341332,0.32 -0.831998,0.32 z m 7.658666,13.461312 q -1.151998,0 -1.919997,-0.448 -0.767999,-0.447999 -1.258665,-1.215998 -0.469332,-0.789332 -0.682665,-1.855997 -0.192,-1.066665 -0.192,-2.325329 0,-2.773329 1.002665,-4.33066 1.023999,-1.578664 3.071995,-1.578664 0.618666,0 1.109332,0.149333 0.490666,0.149333 0.917332,0.383999 l -0.469333,1.514664 q -0.661332,-0.426666 -1.471998,-0.426666 -1.151998,0 -1.706663,1.045332 -0.533333,1.045332 -0.533333,3.242662 0,0.917331 0.106667,1.706664 0.106666,0.767998 0.362666,1.322664 0.277333,0.554666 0.703999,0.874665 0.447999,0.32 1.130664,0.32 0.469333,0 0.831999,-0.106667 0.383999,-0.127999 0.725332,-0.319999 l 0.405333,1.429331 q -0.341333,0.234666 -0.917332,0.426666 -0.554666,0.192 -1.215998,0.192 z M 99.460209,27.08202 H 97.625545 V 15.882037 h 1.834664 z M 98.542877,13.898041 q -0.490666,0 -0.853332,-0.32 -0.341333,-0.341333 -0.341333,-0.895998 0,-0.554666 0.341333,-0.874666 0.362666,-0.341333 0.853332,-0.341333 0.490666,0 0.831999,0.341333 0.362666,0.32 0.362666,0.874666 0,0.554665 -0.362666,0.895998 -0.341333,0.32 -0.831999,0.32 z"
         id="text1"
         aria-label="Yönetici" /><text
         xml:space="preserve"
         transform="translate(9.158462,7.3406254)"
         id="text2"
         style="font-style:normal;font-variant:normal;font-weight:bold;font-stretch:normal;font-family:Ubuntu;-inkscape-font-specification:'Ubuntu Bold';text-align:start;writing-mode:lr-tb;direction:ltr;white-space:pre;shape-inside:url(#rect4);display:inline;fill:#d40000" /></g></g><path
     style="fill:#ff7f2a"
     d="m -21.258354,0.95041102 c -3.77e-4,-0.06384 -0.110859,-1.549524 -0.286048,-3.84657802 -0.05345,-0.700781 -0.132623,-1.786703 -0.175947,-2.413159 -0.08712,-1.259688 -0.111634,-1.505812 -0.150004,-1.505812 -0.01428,0 -0.225114,0.199716 -0.468518,0.443813 l -0.442554,0.443813 -0.454327,-0.453466 c -0.249881,-0.249406 -0.454411,-0.473384 -0.454512,-0.497729 -1.01e-4,-0.02434 0.06497,-0.100615 0.144605,-0.169491 0.174516,-0.150937 1.390474,-1.307788 2.191149,-2.084637 0.683835,-0.663486 1.367346,-1.32025 2.007748,-1.929182 0.25483,-0.242307 0.671995,-0.641211 0.927035,-0.886452 0.255039,-0.245241 0.654658,-0.627946 0.888042,-0.850455 0.233384,-0.222509 0.658899,-0.630816 0.945589,-0.907348 1.301155,-1.255053 2.792807,-2.664977 2.819456,-2.664977 0.02645,0 0.892947,0.825267 2.431566,2.315854 0.307919,0.298307 0.7336,0.706696 0.945958,0.907532 0.212358,0.200837 0.6385222,0.608907 0.9470312,0.906824 0.30851,0.297917 0.734191,0.707086 0.945959,0.909264 0.681705,0.650838 2.404579,2.302665 3.744392,3.589984 0.276272,0.265447 0.596543,0.572073 0.711713,0.68139 l 0.2094,0.198757 -0.468878,0.457622 -0.468877,0.457622 -0.473611,-0.463327 -0.473611,-0.463327 -0.04566,0.65638 c -0.05417,0.778724 -0.09987,1.373019 -0.227175,2.953707 -0.09483,1.177558 -0.174005,2.255086 -0.251069,3.41703402 -0.02253,0.339773 -0.04888,0.669893 -0.05855,0.733601 l -0.01758,0.11583098 -7.4711772,0.0048 c -6.872659,0.0044 -7.471208,-1.98e-4 -7.471548,-0.05792 z m 5.07433,-2.48555602 c -0.0087,-0.663619 -0.02276,-1.94935 -0.03133,-2.857181 l -0.01558,-1.650601 h 2.428625 2.428624 v 2.836482 2.83648202 l 1.9015702,0.01105 c 1.045863,0.0061 1.905012,0.0105 1.909219,0.0098 0.0077,-0.0012 0.119941,-1.43091802 0.300097,-3.82122902 0.140641,-1.866007 0.249093,-3.28316 0.274797,-3.590781 l 0.02258,-0.270274 -0.341174,-0.328265 c -0.187643,-0.180518 -0.697354,-0.666611 -1.132687,-1.080178 -0.435334,-0.413567 -1.052138,-1.004599 -1.370675,-1.313405 -2.2297782,-2.161659 -3.9277552,-3.781066 -3.9662982,-3.782767 -0.02678,-0.0012 -0.359731,0.312932 -1.554809,1.466845 -0.297411,0.287167 -0.731699,0.704161 -0.965083,0.926653 -0.233384,0.222492 -0.633003,0.606071 -0.888042,0.852398 -0.255039,0.246327 -0.654359,0.628571 -0.887376,0.849432 -0.771963,0.731691 -1.345724,1.282732 -1.925539,1.849293 l -0.573123,0.560021 0.02482,0.3668 c 0.0406,0.600072 0.326658,4.329401 0.386487,5.038677 0.03045,0.361009 0.0751,0.9865 0.09921,1.38998 0.02411,0.40348002 0.05138,0.77269402 0.06059,0.82047402 l 0.01675,0.08687 h 1.907043 1.907044 z m 1.103727,-7.712458 V -9.78815 h 0.521242 0.521243 v 0.540547 0.540548 h -0.521243 -0.521242 z m 1.544422,0 V -9.78815 h 0.540547 0.540548 v 0.540547 0.540548 h -0.540548 -0.540547 z m -1.544422,-1.561637 v -0.519153 l 0.521307,-0.01174 0.521308,-0.01174 -6.5e-5,0.530895 -6.5e-5,0.530895 h -0.521243 -0.521242 z m 1.544359,-0.01174 -6.2e-5,-0.530895 0.54061,0.01169 0.54061,0.01169 v 0.519207 0.519207 h -0.540548 -0.540547 z m 1.042548,8.567716 c 0,-1.03735 -0.01135,-2.020396 -0.02523,-2.184547 l -0.02523,-0.298454 -1.267985,0.0127 -1.267985,0.0127 -2.4e-4,2.171844 -2.39e-4,2.17184402 h 1.293453 1.293454 z"
     id="path2" /><g
     style="fill:#d40000;fill-opacity:1"
     id="g1"
     transform="matrix(0.09175376,0,0,0.09175376,0.18313235,0.54582965)"><path
       d="m 228.25,63.07 -4.66,-2.69 a 23.6,23.6 0 0 0 0,-8.76 l 4.66,-2.69 a 8.0015561,8.0015561 0 0 0 -8,-13.86 l -4.67,2.7 A 23.92,23.92 0 0 0 208,33.38 V 28 a 8,8 0 0 0 -16,0 v 5.38 a 23.92,23.92 0 0 0 -7.58,4.39 l -4.67,-2.7 a 8.0015561,8.0015561 0 1 0 -8,13.86 l 4.66,2.69 a 23.6,23.6 0 0 0 0,8.76 l -4.66,2.69 a 8,8 0 0 0 4,14.93 7.92,7.92 0 0 0 4,-1.07 l 4.67,-2.7 A 23.92,23.92 0 0 0 192,78.62 V 84 a 8,8 0 0 0 16,0 v -5.38 a 23.92,23.92 0 0 0 7.58,-4.39 l 4.67,2.7 a 7.92,7.92 0 0 0 4,1.07 8,8 0 0 0 4,-14.93 z M 192,56 a 8,8 0 1 1 8,8 8,8 0 0 1 -8,-8 z m 29.35,48.11 a 8,8 0 0 0 -6.57,9.21 88.85,88.85 0 0 1 1.22,14.68 87.62,87.62 0 0 1 -22.24,58.41 79.66,79.66 0 0 0 -36.06,-28.75 48,48 0 1 0 -59.4,0 A 79.66,79.66 0 0 0 62.24,186.41 88,88 0 0 1 128,40 a 88.76,88.76 0 0 1 14.68,1.22 8,8 0 0 0 2.64,-15.78 103.92,103.92 0 1 0 85.24,85.24 8,8 0 0 0 -9.21,-6.57 z M 96,120 a 32,32 0 1 1 32,32 32,32 0 0 1 -32,-32 z m -21.92,77.5 a 64,64 0 0 1 107.84,0 87.83,87.83 0 0 1 -107.84,0 z"
       id="path1"
       style="fill:#d40000;fill-opacity:1" /></g></svg>
