<?xml version="1.0" encoding="UTF-8" standalone="no"?>
<svg
   xmlns:dc="http://purl.org/dc/elements/1.1/"
   xmlns:cc="http://creativecommons.org/ns#"
   xmlns:rdf="http://www.w3.org/1999/02/22-rdf-syntax-ns#"
   xmlns:svg="http://www.w3.org/2000/svg"
   xmlns="http://www.w3.org/2000/svg"
   xmlns:sodipodi="http://sodipodi.sourceforge.net/DTD/sodipodi-0.dtd"
   xmlns:inkscape="http://www.inkscape.org/namespaces/inkscape"
   enable-background="new 0 0 24 24"
   height="64"
   viewBox="0 0 64 64"
   width="64"
   version="1.1"
   id="svg26"
   sodipodi:docname="tensor_favicon.svg"
   style="fill:#000000"
   inkscape:version="0.92.5 (2060ec1f9f, 2020-04-08)"
   inkscape:export-filename="/home/katemiz/code/breeze/public/images/app_footer_logo.png"
   inkscape:export-xdpi="96"
   inkscape:export-ydpi="96">
  <metadata
     id="metadata32">
    <rdf:RDF>
      <cc:Work
         rdf:about="">
        <dc:format>image/svg+xml</dc:format>
        <dc:type
           rdf:resource="http://purl.org/dc/dcmitype/StillImage" />
        <dc:title></dc:title>
      </cc:Work>
    </rdf:RDF>
  </metadata>
  <defs
     id="defs30" />
  <sodipodi:namedview
     pagecolor="#ffffff"
     bordercolor="#666666"
     borderopacity="1"
     objecttolerance="10"
     gridtolerance="10"
     guidetolerance="10"
     inkscape:pageopacity="0"
     inkscape:pageshadow="2"
     inkscape:window-width="1920"
     inkscape:window-height="996"
     id="namedview28"
     showgrid="false"
     inkscape:zoom="12.4375"
     inkscape:cx="32"
     inkscape:cy="32"
     inkscape:window-x="0"
     inkscape:window-y="0"
     inkscape:window-maximized="1"
     inkscape:current-layer="svg26"
     borderlayer="true" />
  <path
     sodipodi:nodetypes="scscccsccsscccccsccccsscssscscccssccsssssscscccscsssssscccs"
     inkscape:connector-curvature="0"
     d="m 48.641252,10.385156 c -0.22983,0 -0.459661,-0.05746 -0.660763,-0.172372 C 42.464563,7.3686331 37.695581,6.1620241 31.978553,6.1620241 c -5.688304,0 -11.089315,1.350253 -16.001942,4.0507599 C 15.28712,10.586258 14.425256,10.327699 14.023052,9.638208 13.649583,8.9487171 13.908137,8.0581245 14.597628,7.68465 19.941187,4.7830418 25.801859,3.2891442 31.978553,3.2891442 c 6.119231,0 11.46279,1.3502535 17.323462,4.366777 0.71822,0.3734745 0.976779,1.2353382 0.603305,1.9248291 -0.25856,0.5171187 -0.746949,0.8044057 -1.264068,0.8044057 z M 7.5303466,25.467774 c -0.2872881,0 -0.5745762,-0.08619 -0.8331355,-0.258559 -0.6607626,-0.459661 -0.8044067,-1.350254 -0.3447457,-2.011016 2.8441522,-4.022031 6.4639826,-7.182198 10.7732986,-9.394316 9.020841,-4.6540643 20.569817,-4.6827931 29.619387,-0.02873 4.309321,2.212118 7.929151,5.343556 10.773298,9.336859 0.459661,0.632033 0.316017,1.551355 -0.344746,2.011015 -0.660762,0.459661 -1.551356,0.316017 -2.011016,-0.344745 -2.585588,-3.619828 -5.860672,-6.463979 -9.739062,-8.446266 -8.245163,-4.223132 -18.788631,-4.223132 -27.005065,0.02873 -3.907118,2.011016 -7.182197,4.883895 -9.7677898,8.503723 -0.2298305,0.402203 -0.6607626,0.603305 -1.1204236,0.603305 z M 46.084388,54.828603 c -3.418723,0 -6.435248,-0.861864 -8.905926,-2.556864 -4.280587,-2.90161 -6.837451,-7.61313 -6.837451,-12.611937 0,-0.804407 0.632034,-1.436441 1.43644,-1.436441 0.804407,0 1.436441,0.632034 1.436441,1.436441 0,4.050757 2.068469,7.871683 5.573384,10.227445 2.039745,1.378983 4.424236,2.039746 7.297112,2.039746 0.689491,0 1.838644,-0.08619 2.987796,-0.287288 0.775678,-0.143644 1.522627,0.373474 1.666271,1.177881 0.143644,0.775678 -0.373474,1.522627 -1.177881,1.666271 -1.637542,0.316017 -3.073983,0.344746 -3.476186,0.344746 z m -5.774485,5.918127 c -0.114916,0 -0.25856,-0.02871 -0.373475,-0.05746 -4.567881,-1.264065 -7.555672,-2.959065 -10.687112,-6.03304 -4.022033,-3.993305 -6.234146,-9.308129 -6.234146,-14.996428 0,-4.654069 3.96457,-8.446269 8.848468,-8.446269 4.883892,0 8.848468,3.7922 8.848468,8.446269 0,3.073977 2.671779,5.573384 5.975587,5.573384 3.303813,0 5.975592,-2.499407 5.975592,-5.573384 0,-10.830759 -9.336857,-19.62177 -20.828376,-19.62177 -8.158977,0 -15.628467,4.53915 -18.989733,11.577704 -1.120423,2.327031 -1.694999,5.056268 -1.694999,8.044066 0,2.240842 0.201101,5.774485 1.92483,10.37109 0.287288,0.746949 -0.08619,1.580084 -0.833136,1.838643 C 11.494922,52.156823 10.661787,51.75462 10.403228,51.0364 8.9955159,47.272926 8.3060245,43.538186 8.3060245,39.659802 c 0,-3.447459 0.6607626,-6.578898 1.9535595,-9.308133 3.820926,-8.015334 12.295925,-13.215245 21.575325,-13.215245 13.071598,0 23.701252,10.083806 23.701252,22.494649 0,4.654062 -3.96457,8.446259 -8.848468,8.446259 -4.883892,0 -8.848468,-3.792197 -8.848468,-8.446259 0,-3.073985 -2.671779,-5.573391 -5.975587,-5.573391 -3.303813,0 -5.975593,2.499406 -5.975593,5.573391 0,4.912621 1.896102,9.509225 5.372288,12.956683 2.729237,2.700508 5.343553,4.194404 9.394315,5.314822 0.775678,0.201102 1.20661,1.005508 1.005509,1.752457 -0.143644,0.660763 -0.746949,1.091695 -1.350254,1.091695 z"
     id="path4655"
     style="font-style:normal;font-weight:normal;font-size:60px;line-height:1.25;font-family:sans-serif;letter-spacing:0px;word-spacing:0px;fill:#404e4d;fill-opacity:1;stroke:none;stroke-width:4.30931902" />
  <path
     inkscape:connector-curvature="0"
     d="m 25.485842,60.143431 c -0.373474,0 -0.746949,-0.143645 -1.005508,-0.430933 -2.499401,-2.499406 -3.849655,-4.108214 -5.774486,-7.5844 -1.982288,-3.533644 -3.016525,-7.84296 -3.016525,-12.4683 0,-8.532452 7.297118,-15.48482 16.260501,-15.48482 8.963384,0 16.260496,6.952368 16.260496,15.48482 0,0.804408 -0.632034,1.436442 -1.436441,1.436442 -0.804406,0 -1.43644,-0.632034 -1.43644,-1.436442 0,-6.952367 -6.004316,-12.61194 -13.387615,-12.61194 -7.383304,0 -13.38762,5.659573 -13.38762,12.61194 0,4.13695 0.919322,7.957877 2.67178,11.060588 1.838643,3.303813 3.102706,4.711525 5.314824,6.952367 0.545847,0.574576 0.545847,1.465169 0,2.039745 -0.316017,0.287288 -0.689491,0.430933 -1.062966,0.430933 z"
     id="path3804"
     style="font-style:normal;font-weight:normal;font-size:60px;line-height:1.25;font-family:sans-serif;letter-spacing:0px;word-spacing:0px;fill:#c3423f;fill-opacity:1;stroke:none;stroke-width:4.30931902"
     sodipodi:nodetypes="sccssssssscccs" />
</svg>
