<?xml version="1.0" encoding="UTF-8" standalone="no"?>
<svg
   xmlns:dc="http://purl.org/dc/elements/1.1/"
   xmlns:cc="http://creativecommons.org/ns#"
   xmlns:rdf="http://www.w3.org/1999/02/22-rdf-syntax-ns#"
   xmlns:svg="http://www.w3.org/2000/svg"
   xmlns="http://www.w3.org/2000/svg"
   xmlns:sodipodi="http://sodipodi.sourceforge.net/DTD/sodipodi-0.dtd"
   xmlns:inkscape="http://www.inkscape.org/namespaces/inkscape"
   enable-background="new 0 0 24 24"
   height="64"
   viewBox="0 0 64 64"
   width="64"
   version="1.1"
   id="svg26"
   sodipodi:docname="favicon.svg"
   style="fill:#000000"
   inkscape:version="0.92.5 (2060ec1f9f, 2020-04-08)"
   inkscape:export-filename="/home/katemiz/code/breeze/public/images/app_footer_logo.png"
   inkscape:export-xdpi="96"
   inkscape:export-ydpi="96">
  <metadata
     id="metadata32">
    <rdf:RDF>
      <cc:Work
         rdf:about="">
        <dc:format>image/svg+xml</dc:format>
        <dc:type
           rdf:resource="http://purl.org/dc/dcmitype/StillImage" />
        <dc:title />
      </cc:Work>
    </rdf:RDF>
  </metadata>
  <defs
     id="defs30" />
  <sodipodi:namedview
     pagecolor="#ffffff"
     bordercolor="#666666"
     borderopacity="1"
     objecttolerance="10"
     gridtolerance="10"
     guidetolerance="10"
     inkscape:pageopacity="0"
     inkscape:pageshadow="2"
     inkscape:window-width="1920"
     inkscape:window-height="1007"
     id="namedview28"
     showgrid="false"
     inkscape:zoom="12.4375"
     inkscape:cx="17.60804"
     inkscape:cy="32"
     inkscape:window-x="0"
     inkscape:window-y="0"
     inkscape:window-maximized="1"
     inkscape:current-layer="svg26"
     borderlayer="true" />
  <path
     d="M 32.321608,9.7050478 15.962204,22.192729 v -4.307975 h -5.453135 v 8.479622 l -8.179697,6.243838 3.2991469,4.33524 4.8805501,-3.735395 V 58.783254 H 54.134147 V 33.208059 l 4.880549,3.708135 3.299149,-4.30798 z M 48.681012,53.330126 H 35.048174 V 42.423854 H 29.595041 V 53.330126 H 15.962204 V 29.063675 l 16.359404,-12.48767 16.359404,12.48767 z M 26.868472,4.2519199 c 0,4.5260955 -3.653597,8.1796991 -8.179697,8.1796991 -1.499612,0 -2.726571,1.22696 -2.726571,2.726564 h -5.453135 c 0,-4.526098 3.653602,-8.1796969 8.179706,-8.1796969 1.499612,0 2.726566,-1.2269586 2.726566,-2.7265662 z"
     id="path4"
     inkscape:connector-curvature="0"
     style="fill:#0000ff;stroke-width:2.72656727" />
</svg>
