<svg xmlns="http://www.w3.org/2000/svg" xmlns:xlink="http://www.w3.org/1999/xlink" viewBox="0 0 864.98 840.61"><defs><style>.cls-1,.cls-21,.cls-23,.cls-24,.cls-25,.cls-29,.cls-4{fill:none;}.cls-2{isolation:isolate;}.cls-3{fill:#e4f1f9;}.cls-26,.cls-4,.cls-6{stroke:#82bef4;}.cls-21,.cls-29,.cls-4,.cls-6{stroke-linejoin:round;}.cls-5{fill:#d9ecf9;}.cls-26,.cls-6{fill:#fff;}.cls-7{fill:#bce3f7;}.cls-8,.cls-9{fill:#302c2b;}.cls-11,.cls-13,.cls-9{mix-blend-mode:multiply;}.cls-10{fill:#d1d5db;}.cls-12,.cls-13{fill:#e3eaf4;}.cls-14{fill:#ff886f;}.cls-15{fill:#010101;}.cls-16{fill:#97b7ff;}.cls-17{fill:#e4eef7;opacity:0.35;}.cls-18{clip-path:url(#clip-path);}.cls-19{fill:url(#linear-gradient);}.cls-20{fill:url(#linear-gradient-2);}.cls-21{stroke:#dd513e;}.cls-21,.cls-24{stroke-width:0.75px;}.cls-22{fill:#2b2b2b;}.cls-23{stroke:#010101;stroke-linecap:round;}.cls-23,.cls-24,.cls-25,.cls-26{stroke-miterlimit:10;}.cls-24{stroke:#282828;}.cls-25{stroke:#9ccbef;}.cls-26{font-size:7.56px;stroke-width:0.25px;font-family:MyriadPro-BoldCondIt, Myriad Pro;font-weight:700;font-style:italic;}.cls-27{clip-path:url(#clip-path-2);}.cls-28{fill:#ffd5b3;}.cls-29{stroke:#ff947b;}.cls-30{fill:#050505;}.cls-31{fill:#ffbdb0;}.cls-32{fill:#87a2a7;}.cls-33{fill:#004a58;}.cls-34{fill:#a7cbd3;}.cls-35{fill:#195f6d;opacity:0.34;}.cls-36{fill:#003842;}.cls-37{fill:#ad2500;}.cls-38{fill:#de9c8c;}.cls-39{fill:#6670a4;opacity:0.44;}.cls-40{fill:#469aa8;}.cls-41{fill:#e0aa1a;}.cls-42{fill:#f3dda3;}.cls-43{fill:#217f91;}</style><clipPath id="clip-path" transform="translate(-167.94 -179.98)"><path class="cls-1" d="M740.73,492.36l-5.45-9.18a1.64,1.64,0,0,1,.08-1.47L749,455.44c.29-.57.83-.73,1.08-.32l5.5,9.28a1.58,1.58,0,0,1-.08,1.47L741.94,492C741.6,492.65,741,492.82,740.73,492.36Z"/></clipPath><linearGradient id="linear-gradient" x1="1214.55" y1="559.74" x2="1232.18" y2="529.2" gradientTransform="translate(1509.52 1256.31) rotate(-158.11)" gradientUnits="userSpaceOnUse"><stop offset="0" stop-color="#fff" stop-opacity="0.3"/><stop offset="0.89" stop-color="#fff" stop-opacity="0"/></linearGradient><linearGradient id="linear-gradient-2" x1="1215.97" y1="562.78" x2="1233.4" y2="532.59" xlink:href="#linear-gradient"/><clipPath id="clip-path-2" transform="translate(-167.94 -179.98)"><polygon class="cls-1" points="561.78 420.86 615.75 325.42 496.4 263.71 442.43 359.16 561.78 420.86"/></clipPath></defs><title>self photo concept</title><g class="cls-2"><g id="Layer_1" data-name="Layer 1"><path class="cls-3" d="M1032.93,998.27c0,12.33-163.74,22.32-365.72,22.32s-365.72-10-365.72-22.32S465.23,976,667.21,976,1032.93,985.94,1032.93,998.27Z" transform="translate(-167.94 -179.98)"/><line class="cls-4" x1="511.97" y1="107.7" x2="541.08" y2="107.7"/><line class="cls-4" x1="549.95" y1="107.7" x2="562.94" y2="107.7"/><line class="cls-4" x1="307.4" y1="23.73" x2="307.4" y2="29.12"/><line class="cls-4" x1="310.1" y1="26.42" x2="304.7" y2="26.42"/><line class="cls-4" x1="430.18" y1="49.86" x2="430.18" y2="55.26"/><line class="cls-4" x1="432.88" y1="52.56" x2="427.48" y2="52.56"/><line class="cls-4" x1="671.51" y1="184.58" x2="671.51" y2="189.98"/><line class="cls-4" x1="674.21" y1="187.28" x2="668.81" y2="187.28"/><line class="cls-4" x1="609.55" y1="112.86" x2="609.55" y2="118.25"/><line class="cls-4" x1="612.25" y1="115.55" x2="606.85" y2="115.55"/><line class="cls-4" x1="206.35" y1="98.76" x2="206.35" y2="104.16"/><line class="cls-4" x1="209.05" y1="101.46" x2="203.65" y2="101.46"/><line class="cls-4" x1="155.66" y1="211.55" x2="155.66" y2="216.95"/><line class="cls-4" x1="158.36" y1="214.25" x2="152.96" y2="214.25"/><path class="cls-4" d="M507.18,183.06a2.58,2.58,0,1,1-2.58-2.58A2.57,2.57,0,0,1,507.18,183.06Z" transform="translate(-167.94 -179.98)"/><path class="cls-4" d="M666.69,203.83a2.58,2.58,0,1,1-2.58-2.58A2.57,2.57,0,0,1,666.69,203.83Z" transform="translate(-167.94 -179.98)"/><circle class="cls-4" cx="681.7" cy="132.42" r="2.58"/><circle class="cls-4" cx="174.75" cy="142.69" r="2.58"/><line class="cls-4" x1="476.45" y1="35.52" x2="452.01" y2="35.52"/><line class="cls-4" x1="447.81" y1="35.52" x2="439.49" y2="35.52"/><line class="cls-4" x1="603.18" y1="79.49" x2="624.46" y2="79.49"/><line class="cls-4" x1="350.96" y1="31.8" x2="372.24" y2="31.8"/><line class="cls-4" x1="177.16" y1="58.79" x2="198.44" y2="58.79"/><line class="cls-4" x1="697.73" y1="261.64" x2="719.01" y2="261.64"/><line class="cls-4" x1="115.88" y1="251.65" x2="137.16" y2="251.65"/><rect class="cls-5" x="667.11" y="246.36" width="42.78" height="3.9"/><rect class="cls-5" x="76.24" y="155.21" width="42.78" height="3.9"/><rect class="cls-5" x="197.44" y="74.88" width="42.78" height="3.9"/><rect class="cls-5" x="371.33" y="17.37" width="42.78" height="3.9"/><rect class="cls-5" x="621.52" y="88.88" width="42.78" height="3.9"/><rect class="cls-6" x="545.78" y="48.79" width="40.42" height="29.11"/><polygon class="cls-6" points="582.69 73.14 561.75 73.14 572.22 61.72 582.69 73.14"/><polygon class="cls-6" points="575.94 73.14 549.28 73.14 562.61 58.59 575.94 73.14"/><path class="cls-6" d="M747.4,235.29a2.75,2.75,0,1,1-2.75-2.75A2.75,2.75,0,0,1,747.4,235.29Z" transform="translate(-167.94 -179.98)"/><rect class="cls-6" x="94.3" y="171.95" width="40.42" height="29.11"/><polygon class="cls-6" points="131.21 196.31 110.27 196.31 120.74 184.88 131.21 196.31"/><polygon class="cls-6" points="124.47 196.31 97.81 196.31 111.14 181.76 124.47 196.31"/><path class="cls-6" d="M295.93,358.45a2.75,2.75,0,1,1-2.75-2.75A2.75,2.75,0,0,1,295.93,358.45Z" transform="translate(-167.94 -179.98)"/><rect class="cls-6" x="222.18" y="12.37" width="52.36" height="37.71"/><polygon class="cls-6" points="269.99 43.92 242.86 43.92 256.43 29.12 269.99 43.92"/><polygon class="cls-6" points="261.26 43.92 226.72 43.92 243.99 25.07 261.26 43.92"/><circle class="cls-6" cx="262.25" cy="20.82" r="3.56"/><path d="M463.49,227.23l14.37,7.38,192,98.62,15.73,8.08a12.26,12.26,0,0,1,5.1,16.58L637.48,461.51A12.27,12.27,0,0,1,621,467l-15.72-8.08-192-98.62-14.36-7.38a12.27,12.27,0,0,1-5.12-16.58L447,232.73A12.28,12.28,0,0,1,463.49,227.23Z" transform="translate(-167.94 -179.98)"/><rect class="cls-7" x="472.42" y="241.09" width="138.36" height="211.35" transform="translate(-182.25 490.12) rotate(-62.81)"/><path class="cls-8" d="M682.6,341.42a12,12,0,0,1,5,16.24L635.49,459.12a12,12,0,0,1-16.11,5.37L604,456.59l63.22-123.08Z" transform="translate(-167.94 -179.98)"/><path class="cls-9" d="M671.65,335.8c-8,14.16-13.89,29.33-20.95,44.08-4.83,10.06-10.12,20.29-12.88,31.16a44.41,44.41,0,0,0,6.44,36.46l-6.55,12.76a12,12,0,0,1-16.11,5.37l-17.61-9,63.22-123.08Z" transform="translate(-167.94 -179.98)"/><path class="cls-8" d="M465.15,229.73,479.2,237,416,360l-14.05-7.22a12,12,0,0,1-5-16.22L449,235.12A12,12,0,0,1,465.15,229.73Z" transform="translate(-167.94 -179.98)"/><path class="cls-9" d="M439.64,302.42c5.47-9,10-18.58,15-27.92,6.92-13.19,14-26.3,19.66-40.09L479.2,237,416,360l-14.05-7.22c-5.86-3-10.13-11.31-7.07-17.27l5.27-10.25C416.13,331.82,431.77,315.38,439.64,302.42Z" transform="translate(-167.94 -179.98)"/><path d="M427.5,288.84a8.35,8.35,0,1,0,11.34-3.8A8.45,8.45,0,0,0,427.5,288.84Z" transform="translate(-167.94 -179.98)"/><path d="M647.83,401.76a3.22,3.22,0,1,0,4.36-1.47A3.25,3.25,0,0,0,647.83,401.76Z" transform="translate(-167.94 -179.98)"/><path d="M653.72,391a2,2,0,1,0,2.67-.88A2,2,0,0,0,653.72,391Z" transform="translate(-167.94 -179.98)"/><path class="cls-10" d="M489.86,425.23h0a12.77,12.77,0,0,1,25.5,1.32h0l-4.27,297h0a12.43,12.43,0,0,1-1.37,5.42,12.76,12.76,0,0,1-24.12-5.46h-.07L489.85,426c0-.23,0-.45,0-.68Z" transform="translate(-167.94 -179.98)"/><g class="cls-11"><path class="cls-10" d="M491.22,420.48a12.76,12.76,0,0,1,12.93-6.81,12.46,12.46,0,0,0-5.19,9.15h0v.05c0,.23,0,.45,0,.67l-4.29,297.57h.07a12.68,12.68,0,0,0,6.87,11,12.54,12.54,0,0,0,4.33,1.29,12.69,12.69,0,0,1-20.3-9.87h-.07L489.85,426c0-.23,0-.45,0-.68v0h0A12.78,12.78,0,0,1,491.22,420.48Z" transform="translate(-167.94 -179.98)"/></g><path class="cls-12" d="M486.32,451.16h0a15.4,15.4,0,0,1,30.75,1.58h0L512,811.05h0a15.28,15.28,0,0,1-1.65,6.52A15.39,15.39,0,0,1,481.2,811h-.07l5.17-359c0-.27,0-.54,0-.81Z" transform="translate(-167.94 -179.98)"/><path class="cls-13" d="M488,445.44a15.4,15.4,0,0,1,16.92-8,15.51,15.51,0,0,0-3.12,4.09,15.06,15.06,0,0,0-1.62,5.72h0v.06c0,.27,0,.53,0,.8l-5.18,359H495a15.42,15.42,0,0,0,8.32,13.26,15.18,15.18,0,0,0,3.86,1.31,15.33,15.33,0,0,1-26-10.65h-.07l5.17-359c0-.27,0-.54,0-.81v-.06h0A15.31,15.31,0,0,1,488,445.44Z" transform="translate(-167.94 -179.98)"/><path class="cls-8" d="M480.2,822.45h0a17,17,0,0,1,34,1.76h0l-.89,159.65h0a17,17,0,0,1-34-.06h-.09l1-160.38a6.76,6.76,0,0,1,0-.9Z" transform="translate(-167.94 -179.98)"/><g class="cls-11"><path class="cls-8" d="M482,816.12a17.06,17.06,0,0,1,19.64-8.66A17,17,0,0,0,492.73,821h0v.07c0,.3,0,.6,0,.89l-1,160.38h.08A17,17,0,0,0,501,997a16.61,16.61,0,0,0,3.32,1.28,17,17,0,0,1-25-14.5h-.09l1-160.38a6.76,6.76,0,0,1,0-.9v-.06h0A17,17,0,0,1,482,816.12Z" transform="translate(-167.94 -179.98)"/></g><path class="cls-8" d="M453.46,387.93l3.69-7.17L549.2,428l-3.68,7.17c-1.53,3-6.39,3.53-10.85,1.24l-75.9-39C454.31,395.17,451.93,390.91,453.46,387.93Z" transform="translate(-167.94 -179.98)"/><g class="cls-11"><path class="cls-8" d="M462.24,383.37l-1.91,3.71c-1.53,3,.86,7.25,5.32,9.54l75.89,39a13.61,13.61,0,0,0,2.73,1c-2.15,1.65-6,1.69-9.6-.17l-75.9-39c-4.46-2.29-6.84-6.55-5.31-9.53l3.69-7.17Z" transform="translate(-167.94 -179.98)"/></g><path class="cls-14" d="M640.77,531.29l28.85,16.34L723,495.51l15.24,14.57s-36.77,86.55-69.86,81.57c-23.52-3.54-55.44-25.94-55.44-25.94" transform="translate(-167.94 -179.98)"/><path class="cls-5" d="M571.14,505.45s16.85-5.45,46,8.8c19.45,9.5,48,27.18,48,27.18l-21,51.3L580.49,558.6" transform="translate(-167.94 -179.98)"/><path class="cls-14" d="M734.51,507.23,729,492s12.3-26.6,14.42-26.33-4.1,13.12-4.1,13.12,9.32-15.48,9.77-14.41c.81,1.92-5.8,16.37-5.8,16.37s10-13.37,10.48-11.72-10,22.43-10,22.43Z" transform="translate(-167.94 -179.98)"/><path class="cls-15" d="M741.05,492.6l-3.92-8.71a1.64,1.64,0,0,1,.08-1.47l12.37-27.52s1.71.55,1.95.66a.69.69,0,0,1,.38.27l5.5,9.27a1.58,1.58,0,0,1-.08,1.47l-13.54,26.14a1,1,0,0,1-.77.62Z" transform="translate(-167.94 -179.98)"/><path class="cls-16" d="M740.73,492.36l-5.45-9.18a1.64,1.64,0,0,1,.08-1.47L749,455.44c.29-.57.83-.73,1.08-.32l5.5,9.28a1.58,1.58,0,0,1-.08,1.47L741.94,492C741.6,492.65,741,492.82,740.73,492.36Z" transform="translate(-167.94 -179.98)"/><polygon class="cls-17" points="568.39 299.85 574.75 310.57 586.6 287.7 580.24 276.98 568.39 299.85"/><path class="cls-16" d="M747.46,473c.55.19,1.17-.17,1.69-1.13a8.54,8.54,0,0,0,.53-6c-.58-1.66-1.77-1.7-2.65-.07a8.47,8.47,0,0,0-.84,3.54c-.9-.85-2.08-.43-3,1.32l-4.71,8.63,4.17,7,3.63-6.74A12.58,12.58,0,0,0,747.46,473Z" transform="translate(-167.94 -179.98)"/><path class="cls-17" d="M738.81,486.28c-.15.37-.4.53-.57.36a1,1,0,0,1,0-1c.14-.36.4-.53.56-.36A1,1,0,0,1,738.81,486.28Z" transform="translate(-167.94 -179.98)"/><path class="cls-17" d="M752.53,461.9a.31.31,0,0,0,.13,0,.23.23,0,0,0,.08-.3l-1.1-1.91a.22.22,0,0,0-.3-.08.21.21,0,0,0-.08.3l1.1,1.91A.23.23,0,0,0,752.53,461.9Z" transform="translate(-167.94 -179.98)"/><g class="cls-18"><polygon class="cls-19" points="588.36 280.52 589.56 282.92 566.31 309.54 565.11 307.15 588.36 280.52"/><polygon class="cls-20" points="588.78 277.95 589.08 278.54 565.84 305.17 565.54 304.57 588.78 277.95"/></g><path class="cls-14" d="M736.12,496.32a14.72,14.72,0,0,1,8.78-9.51c.79-1.58,6.46-10.89,7.64-10.65s-4.15,15.6-5.95,19.19-8.4,14.73-8.4,14.73l-19.72,27.5s-10-15.67-9.37-16.07S731.19,493,731.19,493" transform="translate(-167.94 -179.98)"/><path class="cls-14" d="M708.09,521.12,723,495.51s1.53-4.57,6.79-11.93c.85-1.2,3-3.58,4.15-3.89a1.43,1.43,0,0,1,1.25.49c.94.82,4.41,4.71,4.08,5.83-.55,1.91-2.68,1.19-5.25-.18a14.39,14.39,0,0,1-.25,8.49c-.35,1.09-1.14,4.55-3.52,7.08l-15.46,30.21" transform="translate(-167.94 -179.98)"/><path class="cls-21" d="M744.9,486.81a20.93,20.93,0,0,0-10,9.18" transform="translate(-167.94 -179.98)"/><path class="cls-21" d="M738,487.15s-3.43-.59-4-1.32c.55,3.73.93,5.4-3.37,11.25" transform="translate(-167.94 -179.98)"/><path class="cls-15" d="M530,917.4l3.7-1.74,22.69,48.21a7.32,7.32,0,0,0,5.92,4.18l.26.38-5.95,2.8a.94.94,0,0,1-.7,0l-.22-.07a5.6,5.6,0,0,1-3.37-3l-23-48.91A1.44,1.44,0,0,1,530,917.4Z" transform="translate(-167.94 -179.98)"/><path class="cls-14" d="M593.92,858.69l-42,50.53-15.37,9.16,21.82,46.38a3.09,3.09,0,0,0,4.11,1.47h0a3.09,3.09,0,0,0,1.76-3L562,932.44l46-37.84" transform="translate(-167.94 -179.98)"/><path class="cls-22" d="M564.11,930.1l1,34.73a3.89,3.89,0,0,1-2.34,3.51h0a4.22,4.22,0,0,1-5.23-2.05l-23.83-50.63,18.82-6.79S550.69,920.55,564.11,930.1Z" transform="translate(-167.94 -179.98)"/><path class="cls-23" d="M565.72,936.84a37.72,37.72,0,0,0-8.74-.9" transform="translate(-167.94 -179.98)"/><path class="cls-23" d="M565.24,941.5a33,33,0,0,0-7.38-.65" transform="translate(-167.94 -179.98)"/><path class="cls-23" d="M565.08,945.32a46.36,46.36,0,0,0-6.76-.57" transform="translate(-167.94 -179.98)"/><path class="cls-15" d="M619.57,681.56l6,13.94c2,4.54,47.56,86.13,47.56,126,0,29.73-74.5,109.2-74.5,109.2l-35.65-40,48.37-69.3-38.92-75.84s-28.46-10-17-61" transform="translate(-167.94 -179.98)"/><path class="cls-15" d="M561.29,984.28v-4.09h53.28a7.35,7.35,0,0,0,6.31-3.58l.45-.08v6.57a1,1,0,0,1-.26.66l-.16.17a5.64,5.64,0,0,1-4.12,1.79H562.73A1.44,1.44,0,0,1,561.29,984.28Z" transform="translate(-167.94 -179.98)"/><path class="cls-14" d="M552,909.44,563.23,961,565,978.76h51.25a3.09,3.09,0,0,0,3.09-3.09h0a3.1,3.1,0,0,0-2-2.88l-28.8-11.09L584.62,904" transform="translate(-167.94 -179.98)"/><path class="cls-22" d="M588.33,958.8l30.82,13.91a3.89,3.89,0,0,1,2.18,3.61h0a4.24,4.24,0,0,1-4.08,3.87h-56l1.87-19.92S574,966.88,588.33,958.8Z" transform="translate(-167.94 -179.98)"/><path class="cls-15" d="M511.63,687s-4.24,31.27,7.71,61.82,28,206.41,28,206.41l51-18.19L587,714.65s.35-22.14-7.85-56.5" transform="translate(-167.94 -179.98)"/><path class="cls-24" d="M542.26,691.36s2.75,19.4-17,33.57" transform="translate(-167.94 -179.98)"/><path class="cls-5" d="M580.91,506.31s28.51,21.21,36,72,11.61,113.15,11.61,113.15L510.82,695S500.4,649.23,506,600.73c4.43-38.46,15.35-77.28,30.68-93.69,3-2.44,21.82-5.66,21.82-5.66l22.43,4.93" transform="translate(-167.94 -179.98)"/><path class="cls-25" d="M617.34,578.35s-3.14-25-11.87-44.68" transform="translate(-167.94 -179.98)"/><path class="cls-25" d="M579.08,505.58c5.09,2.07,7.56,12-4.52,12.8s-21.2-6.57-25.67-14.9" transform="translate(-167.94 -179.98)"/><path class="cls-14" d="M584.41,489.94l-12.58-27.08L558.36,482.4l-1.8,4.6-3.95,16.87s12,14.86,25.77,9.2a2.56,2.56,0,0,0,1.51-1.88l4.52-21.25" transform="translate(-167.94 -179.98)"/><path class="cls-14" d="M580.72,448.56c6,7.41,18.4,37,13,43s-17.65,7.14-23.9,3.81c-5.42-2.9-19.26-25.19-15.62-33.75S572.35,438.16,580.72,448.56Z" transform="translate(-167.94 -179.98)"/><path class="cls-15" d="M544.48,464.4c0-3.52,1.81-6.79,3.56-9.86,3.34-5.85,7.23-12,13.49-14.49,1.44-.57,3.31-.83,4.36.32a17.3,17.3,0,0,1,8-4.28,9.5,9.5,0,0,1,5.44.13,5,5,0,0,1,3.32,4,36.19,36.19,0,0,1,9.27-.69,13.71,13.71,0,0,1,6.12,2c1.8,1.17,2.09,2.11,2,4.19-.24,3.78-2.87,7.19-6.06,9.06-4,2.37-8.9,2.84-13.58,3.13s-9.51.5-13.77,2.45a5.81,5.81,0,0,0-2.7,2.12,6.84,6.84,0,0,0-.7,3l-.9,11.19A24.24,24.24,0,0,1,560,486c-1.18,2.3-4.88,8.19-6.64,3.54-1.59-4.21-8.81-21.09-8.87-24.82Z" transform="translate(-167.94 -179.98)"/><path class="cls-14" d="M565.65,476.67c-1.49-1.13-3.32-2.33-4.95-1.78a3.14,3.14,0,0,0-1.78,1.84c-1.74,4.22.49,9.86,5,11.35,1.86.62,4,.36,4.43-1.87l-1.94-8.6C566.33,477.22,566,476.92,565.65,476.67Z" transform="translate(-167.94 -179.98)"/><path class="cls-21" d="M582.08,497.66s-9.82,1.53-14.39-4.45" transform="translate(-167.94 -179.98)"/><path class="cls-21" d="M561.76,487s3.69,2.32,6.24.08" transform="translate(-167.94 -179.98)"/><path class="cls-14" d="M544,573.48l-27.75,46.43,19.48,77.29,4.73,5.63c-3.09,12.3-12.91,19.57-12.91,19.57L518.13,709s-52.1-63.57-49.61-91.77c2.06-23.4,35.21-78.35,35.21-78.35" transform="translate(-167.94 -179.98)"/><path class="cls-5" d="M546.29,504c-9.1,1.16-26.63,6.81-44.33,31-25.95,35.45-31.21,48.49-31.21,48.49l57.63,35,37.14-62.75" transform="translate(-167.94 -179.98)"/><polyline class="cls-25" points="302.81 403.48 360.43 438.51 397.57 375.76"/><polygon class="cls-6" points="456.1 143.72 397.5 246.74 264.09 177.4 322.69 74.38 456.1 143.72"/><text class="cls-26" transform="matrix(0.48, -0.85, 0.89, 0.46, 429.73, 241.8)">1425</text><text class="cls-26" transform="matrix(0.48, -0.85, 0.89, 0.46, 448.36, 208.86)">456</text><path class="cls-6" d="M615.4,396.49a5.74,5.74,0,0,0-3-3.95,6.14,6.14,0,0,0-8.12,2.31,5.59,5.59,0,0,0,2.43,7.76,6.14,6.14,0,0,0,8.13-2.3,5.39,5.39,0,0,0,.51-1.25l3-1.93Z" transform="translate(-167.94 -179.98)"/><polygon class="cls-6" points="467.77 150.93 463.65 158.22 476.42 164.83 475.84 159.82 480.55 157.54 467.77 150.93"/><path class="cls-6" d="M589.36,423.31a4.09,4.09,0,0,0-2.59,2.76,4.49,4.49,0,0,0,.63,3.59,5,5,0,0,0-3.51,1.43,3.89,3.89,0,0,0-1,3.57,4.81,4.81,0,0,0,4.13,3.27,8.74,8.74,0,0,0,5.42-1.33,11.29,11.29,0,0,0,3.3-2.57h0a10.45,10.45,0,0,0,.49-4.05,7.85,7.85,0,0,0-1.74-5.08A5,5,0,0,0,589.36,423.31Z" transform="translate(-167.94 -179.98)"/><g class="cls-27"><path class="cls-5" d="M457.68,346.08a7.39,7.39,0,0,1,6.1-4.3c1.46-.17,3.19-.1,4.52-.95,1.64-1.05,2.26-3.29,3.23-4.89,1.58-2.6,4.89-.9,4.89-.9L459.58,364.8c-1.3,2.32-6.2-.9-4.19-5,1.08-2.22,3.44-4.2,2.25-6.79A7.51,7.51,0,0,1,457.68,346.08Z" transform="translate(-167.94 -179.98)"/><path class="cls-28" d="M552.1,331.4l7.8-10.07,8.5-5.68-24.62-14.91L549,289s45.39,12.34,47.91,25.29c2.95,15.13-38.41,34.25-38.41,34.25" transform="translate(-167.94 -179.98)"/><path class="cls-29" d="M577.13,322.47a108.49,108.49,0,0,1-8.73-6.82" transform="translate(-167.94 -179.98)"/><path class="cls-5" d="M527.64,344.23c5.59-12.24,35.12-25.45,35.12-25.45l17.52,19.45-30.74,19.84" transform="translate(-167.94 -179.98)"/><path class="cls-28" d="M507.53,302.88a85.66,85.66,0,0,1,12.94.75c3.48.46,7.13,1.07,10,3a10.31,10.31,0,0,1,3.58,12.67,30.42,30.42,0,0,1-4.51,7.55c-6.43,7.25-13.94,6.78-16.42,7.64s-20.34-7.7-17.72-12.33S497.14,303.76,507.53,302.88Z" transform="translate(-167.94 -179.98)"/><path class="cls-5" d="M520,350.43,537,335c6.56.87,28.42,4.69,28.42,4.69l33,11.21-40,70.7S513.28,380.67,520,350.43Z" transform="translate(-167.94 -179.98)"/><path class="cls-28" d="M523.77,323.8,537,335s-1,11.87-17,15.45l-13.26-24.19" transform="translate(-167.94 -179.98)"/><path class="cls-28" d="M546.78,301.85c-6.91-3.05-22.11-4.85-21.75-6.75s6.33.15,6.91-.87c-3.57-2-13.37-4.91-12.5-6.45s9.83,1.53,9.83,1.53-2.7-1.95-1.71-3,3.22-.18,3.82.12c-.43-.46-1.63-2.17-.81-3.09s3.57.34,3.57.34-8.34-6.29-6.55-7.53,15.89,11.43,25.94,14.11" transform="translate(-167.94 -179.98)"/><path class="cls-29" d="M535,284.43s3.67,3,2.45,4.11-5.57-1.83-5.57-1.83,4.34,3.71,3.34,4.64-5.9-2-5.9-2" transform="translate(-167.94 -179.98)"/><path class="cls-29" d="M533.18,294a11.77,11.77,0,0,1,9.33.39" transform="translate(-167.94 -179.98)"/><path class="cls-29" d="M537.23,286.87a15.51,15.51,0,0,0,6.35,4.93" transform="translate(-167.94 -179.98)"/><polygon class="cls-28" points="426.88 177.32 391.5 165.23 370.24 168.85 360.9 187.93 365.46 201.59 393.11 237.05 426.88 177.32"/><path class="cls-5" d="M563.43,345.47s-17.8-9.17-31.28-4.81c-6.52,2.1-13.1,10.47-11,19.58C523.81,372,534,383.66,534,383.66S546.75,356.29,563.43,345.47Z" transform="translate(-167.94 -179.98)"/><path class="cls-29" d="M528.41,327.71a10.31,10.31,0,0,1-5.5,3.85" transform="translate(-167.94 -179.98)"/><path class="cls-30" d="M496.51,326.09c.05-.07,0-.15-.05-.23a25.38,25.38,0,0,1-.28-3.73l-.35-4.12c0-.38-.38-1.66-.18-2l7.46-13.47c1.16-3.56,6.37-9.72,9.68-5.13,2.37,3.28-2.21,9.67-4,12.66a1.71,1.71,0,0,1,2.18,1.47,5.35,5.35,0,0,1-.77,3.05c-.87,1.72-2.89,3.47-2.75,5.47a8.1,8.1,0,0,0,2.49,5.1,8.68,8.68,0,0,1,1.42,1.61,2.4,2.4,0,0,1,.24,2.15,10.42,10.42,0,0,0-.49,1c-.38,1.42,1.71,3.38,2.26,4.55a18.11,18.11,0,0,1,1.69,6.31,25.07,25.07,0,0,0-5.25-1.26c-2.7.08-4.33.28-6.05-.28C503.74,339.23,491.13,333.89,496.51,326.09Z" transform="translate(-167.94 -179.98)"/><path class="cls-31" d="M512.32,327.82a7,7,0,0,0-3.25,3.84,2,2,0,0,0,.45,2.41c1.08.65,2.94-.05,4.54-1.54,1.4-1.31,3.08-4.44,1.83-5.09" transform="translate(-167.94 -179.98)"/><path class="cls-29" d="M513.84,335.34a7.58,7.58,0,0,0,3.51-1.1c1.79-1.12,3.43-4.27,1.22-5.41" transform="translate(-167.94 -179.98)"/><path class="cls-25" d="M563.43,345.47s-14-7.51-25.92-5.87" transform="translate(-167.94 -179.98)"/><path class="cls-25" d="M534,383.66s-8.13-10.41-10.19-15.76" transform="translate(-167.94 -179.98)"/><path class="cls-25" d="M573.71,342.47c-6.56-2.52-13.65-4.88-19-6.31" transform="translate(-167.94 -179.98)"/><path class="cls-5" d="M496.36,286c-4.09,6.29,3.8,9.57,3.65,12s-1.59,2.17-3.07,5,.55,6,.55,6l18.22-32.22c1.42-2.5-3.79-6-6.55-1.85s-.28,5.65-2.23,6.74S499.81,280.64,496.36,286Z" transform="translate(-167.94 -179.98)"/></g><path class="cls-32" d="M248,950.43h76.74c12.74,6.52,10.32,16.2,10.32,27,0,11.56,1.3,21.82-13,28.3H250.68c-14.26-6.48-12.2-16.74-12.2-28.3C238.48,966.63,235.29,957,248,950.43Z" transform="translate(-167.94 -179.98)"/><path class="cls-33" d="M349.37,894.74l14.56-13.09c6.29-19.87,9.41-42.11,4.56-64a183.17,183.17,0,0,0-33.32,10.5l-7.84,16.43-3.74-10.8c-8.2,4.53-15.89,10.12-21.38,16.91l4.44,22.37-10.55-12a32.19,32.19,0,0,0-1.82,6.92c-5.38,37.07-4.6,83-4.6,83h37.06a235.83,235.83,0,0,0,30.46-51.33Z" transform="translate(-167.94 -179.98)"/><path class="cls-34" d="M327.74,935.59c-9,4.46-15.41,4.49-17.72,4.31,11.52-15.06,21.51-34.15,29.25-51.35.56,0,1.11,0,1.65,0a36.67,36.67,0,0,0,23.63-8.94c.21-.69.42-1.39.62-2.08-5.7,5.13-14.21,10.18-25.38,9.83,2.25-5,4.39-10.09,6.46-15.19,8.47-1.1,16.84-6.25,22.66-10.66.1-.58.2-1.16.29-1.75-5.61,4.38-14,9.84-22.45,11.15,10.44-26,17-47,17.07-47.26l2.09-4.72L363,822.25c-.12.4-5.52,17.44-13.72,39-4.36-9.25-2-31.85-1.25-38l-1.23.42c-.87,7.17-3.16,30.18,1.92,39a442.07,442.07,0,0,1-19.44,43.89c-3.12-4.71,2.05-35.19-6.62-47.22-5.29-7.34-6-15.88-5.71-21.56l-1.2.81c-.18,5.85.75,14.2,6,21.44,8.74,12.11,2.74,43.56,7,47.65q-2.26,4.32-4.63,8.53c-8.71-27.41-8.59-28.38-7.41-39.25.69-6.25,1.33-12.15-2.84-16.32-3.62-3.62-4.81-10.79-5.14-16.6-.39.33-.76.67-1.14,1,.43,5.82,1.76,12.72,5.46,16.42,6.64,6.64-.26,18.48,2.72,30.26,2.71,10.65,6.87,23.72,7.56,25.87-3.26,5.68-6.67,11.14-10.23,16.23-1.47-1.25-7.64-7.3-5.89-20,1.43-10.34-8.23-23.5-14.66-31-.05.56-.11,1.11-.16,1.67,6.26,7.46,15,19.73,13.66,29.13-1.87,13.59,4.8,19.88,6.37,21.15A123.46,123.46,0,0,1,298.83,951h1.65c.82-.83,1.64-1.69,2.45-2.58,4.58,1.43,11.66.67,18.7-4.55a16.64,16.64,0,0,1,12.64-3l.74-1.07a17.89,17.89,0,0,0-14.08,3.17c-8,5.94-14.81,5.06-17.11,4.51,1.82-2,3.6-4.18,5.36-6.43,5.88.87,13.59-1.63,19.08-4.35a24.68,24.68,0,0,1,10.46-2.5l.75-1.17A26,26,0,0,0,327.74,935.59Z" transform="translate(-167.94 -179.98)"/><path class="cls-35" d="M300.57,866.13l-4.47-5.08a32.19,32.19,0,0,0-1.82,6.92c-5.38,37.07-4.6,83-4.6,83S304.16,917.31,300.57,866.13Z" transform="translate(-167.94 -179.98)"/><path class="cls-33" d="M167.94,921.82c1.56,0,21.46-10.14,55.41,0A183.25,183.25,0,0,1,280.7,951s-37.45,7.52-73,1.66S167.94,921.82,167.94,921.82Z" transform="translate(-167.94 -179.98)"/><path class="cls-36" d="M278,948.21c-22.28-15.34-56.42-31.35-85.14-30.89,6,17.06,14.15,29.47,30.31,37.09,24.4,1.71,47.54-1.38,55.79-2.68C278.68,950.64,278.37,949.46,278,948.21Z" transform="translate(-167.94 -179.98)"/><path class="cls-37" d="M278.88,802.29l-14.56,15.35,5.74-32.07a160.07,160.07,0,0,0-17.55-24.5c-17.55-19.9-49.16-49.46-49.16-49.46a191.06,191.06,0,0,0-15.45,43.28l16.33,16.71-18.93-1.89C171.29,877.56,269.49,951,269.49,951h20.19s9.07-87.78,1.75-114.7A210,210,0,0,0,278.88,802.29Z" transform="translate(-167.94 -179.98)"/><path class="cls-38" d="M293.17,846.1c-.2-1.75-.43-3.4-.69-4.93-4.25,11.73-15.52,40-27.76,47.37-.41-1.17-.84-2.35-1.28-3.52,12.19-4.52,22-34.79,26.88-52.68-.42-1.4-.85-2.81-1.3-4.22-5.07,19.58-15.31,50.75-26.4,54.71A161.74,161.74,0,0,0,250.29,857c-3.88-6.41-7.85-15.22-11.75-25.36,10.53-8,18.58-42.24,22.17-60.37-.61-.83-1.22-1.65-1.84-2.46-3.28,16.91-11.43,52.12-21.21,60.53-2.81-7.46-5.57-15.57-8.23-23.92,8.94-13.42,11.9-41.83,12.83-55.49l-2.21-2.31c-.74,11.9-3.34,40.64-11.55,54.86-13.13-41.86-24.11-87.94-24.27-88.65l-.88-1.62V714c.18.8,12.39,59.15,27.81,104.17-17.39,5.8-36.45-6.47-46.75-14.79.09,1.09.18,2.18.29,3.26a97.28,97.28,0,0,0,8.95,6.21c9.91,6.07,19.4,9.15,28,9.15a32.45,32.45,0,0,0,10.28-1.62c4.23,12.17,8.63,23.25,13,31.79-15.67,5.46-38.45-.62-51.13-4.93.34,1,.69,1.91,1,2.86,9.21,3,22.65,6.61,35.3,6.61A47.05,47.05,0,0,0,246,854.26c.75,1.41,1.51,2.74,2.26,4C268.67,891.84,277,946,277.75,951h2.36a365.15,365.15,0,0,0-14.6-60.18C277.39,884,288,859.72,293.17,846.1Z" transform="translate(-167.94 -179.98)"/><path class="cls-39" d="M269.44,951h18.8s-4.38-40.32-41.73-67.18l-4.5,7.06-.67-10.55c-2.17-1.38-4.44-2.7-6.8-4L228.69,890l-2.53-17.75a133.29,133.29,0,0,0-25.5-8.12C225.09,917.12,267.83,949.74,269.44,951Z" transform="translate(-167.94 -179.98)"/><path class="cls-40" d="M350.38,880.18l-3.93,17.45-4.75-12.52a113.19,113.19,0,0,0-14.34,10.48l-1.4,8.67-4.61-3c-12,12.36-21,28.58-22.31,49.74h31.21s67.11-18.63,69.46-87.3A173.05,173.05,0,0,0,350.38,880.18Z" transform="translate(-167.94 -179.98)"/><path class="cls-34" d="M311.06,951h5.21C353,931.06,394,870.89,395.8,868.24l2.54-3.92-4.48,2.61C393.41,867.6,348.17,933.94,311.06,951Z" transform="translate(-167.94 -179.98)"/><path class="cls-41" d="M245,893.43l-3.85,6.05-.58-9c-1.85-1.18-3.8-2.31-5.83-3.4l-5,11.71-2.17-15.2a123,123,0,0,0-37-9.33s3.12,42.53,21.85,61.26,48,15.5,48,15.5H280.7S277,916.44,245,893.43Z" transform="translate(-167.94 -179.98)"/><path class="cls-42" d="M262.68,951h3.07c-44.71-30.83-71.87-74.05-72.14-74.49l-2.35-1.39.86,2.31C192.39,877.85,218.89,920,262.68,951Z" transform="translate(-167.94 -179.98)"/><path class="cls-43" d="M280.7,951S243.23,934,218.38,936.11s-50.44,29.75-50.44,29.75,8.15,2.92,19.89,5.83l11.07-8.8-3.09,10.64c18.33,3.88,41.82,6.48,57.87-.33C283.61,960.49,280.7,951,280.7,951Z" transform="translate(-167.94 -179.98)"/><path class="cls-34" d="M280.7,951s-.83-.37-2.3-1c-7.44-.46-31.06-1.75-51.93-1-3.5-2.71-4.94-8.64-5.54-13-.58,0-1.15,0-1.72.08.56,4.15,1.85,9.68,4.89,13.07-1,0-7.76.59-10.07.94-3.68-2.64-4.48-8-4.48-12.22-.57.17-1.14.36-1.71.55.07,4,.88,8.92,4,12-2.23.39-4.41.86-6.53,1.37-4.75-.77-7.62-4.82-9.19-8.11l-1.5.85c1.41,2.93,3.78,6.39,7.54,8.07-1.85.51-3.65,1-5.38,1.62-6.17-1.71-8.54-3.73-9.46-5l-1.39,1c1,1.42,3.27,3.29,8.11,4.93a119.71,119.71,0,0,0-20.57,9.35l.88,1.44c.21-.12,19.86-12,43.23-14.64-6.16,5-8.77,15.33-10.27,21.33-.25,1-.52,2.07-.76,2.89l1.69.25c.2-.71.43-1.6.71-2.73,1.67-6.66,4.77-19,12.51-22.09,1.25-.08,7.5-.32,9-.36-5.87,5.08-10.32,19-12.33,26.35l1.71.14c2.68-9.62,8.08-24.86,14-26.56C256.8,950.16,280.7,951,280.7,951Z" transform="translate(-167.94 -179.98)"/></g></g></svg>