<?xml version="1.0" encoding="UTF-8" standalone="no"?><!-- Generator: Gravit.io --><svg xmlns="http://www.w3.org/2000/svg" xmlns:xlink="http://www.w3.org/1999/xlink" style="isolation:isolate" viewBox="0 0 48 48" width="48pt" height="48pt"><defs><clipPath id="_clipPath_8gaoX5622xpVm8QQHO89fq5BifuVzs40"><rect width="48" height="48"/></clipPath></defs><g clip-path="url(#_clipPath_8gaoX5622xpVm8QQHO89fq5BifuVzs40)"><g><g><g><clipPath id="_clipPath_bPdQZaAcZNrcXOH96biwajsWhJJ88BYz"><rect x="-78.749" y="-14.772" width="149.54" height="84.116" transform="matrix(1,0,0,1,0,0)" fill="rgb(255,255,255)"/></clipPath><g clip-path="url(#_clipPath_bPdQZaAcZNrcXOH96biwajsWhJJ88BYz)"><g><path d=" M 6.039 43.729 L 9.21 36.842 L 12.809 29.049 L 22.229 8.616 C 22.229 8.607 22.237 8.599 22.237 8.59 C 22.606 7.793 23.076 7.055 23.638 6.393 C 22.874 6.124 22.061 5.982 21.214 5.982 C 20.66 5.982 20.207 5.529 20.207 4.975 C 20.207 4.421 20.66 3.968 21.214 3.968 C 22.648 3.968 23.999 4.287 25.24 4.866 C 26.901 3.608 28.965 2.853 31.212 2.853 C 33.452 2.853 35.524 3.599 37.185 4.866 C 38.418 4.279 39.777 3.968 41.211 3.968 C 41.765 3.968 42.218 4.421 42.218 4.975 C 42.218 5.529 41.765 5.982 41.211 5.982 C 40.364 5.982 39.551 6.124 38.787 6.393 C 40.288 8.172 41.111 10.424 41.111 12.751 C 41.114 14.179 40.805 15.591 40.205 16.886 L 34.61 28.991 C 33.553 31.281 32.085 33.294 30.282 34.955 L 32.102 41.338 C 32.345 41.296 32.588 41.28 32.831 41.28 L 33.025 41.28 C 34.257 41.278 35.44 41.767 36.313 42.639 C 36.567 42.893 36.667 43.264 36.574 43.612 C 36.48 43.96 36.209 44.232 35.861 44.325 C 35.513 44.419 35.141 44.319 34.887 44.065 C 34.392 43.569 33.729 43.293 33.025 43.293 L 32.84 43.293 C 32.135 43.293 31.472 43.569 30.978 44.065 C 30.584 44.457 29.946 44.457 29.552 44.065 C 29.157 43.67 29.157 43.033 29.552 42.639 C 29.761 42.429 29.988 42.244 30.223 42.076 L 28.579 36.33 C 27.203 37.32 25.693 38.134 24.057 38.738 C 23.68 38.872 23.311 38.998 22.933 39.115 L 23.571 41.33 C 23.814 41.288 24.057 41.271 24.3 41.271 L 24.485 41.271 C 25.718 41.27 26.901 41.759 27.773 42.63 C 28.028 42.885 28.128 43.256 28.034 43.604 C 27.941 43.952 27.669 44.224 27.321 44.317 C 26.973 44.41 26.602 44.311 26.347 44.056 C 25.852 43.561 25.19 43.284 24.485 43.284 L 24.3 43.284 C 23.596 43.284 22.933 43.561 22.438 44.056 C 22.041 44.424 21.423 44.412 21.04 44.029 C 20.657 43.646 20.644 43.028 21.012 42.63 C 21.222 42.42 21.449 42.236 21.684 42.068 L 20.971 39.577 C 19.838 39.786 18.689 39.896 17.548 39.896 C 15.199 39.896 12.859 39.451 10.628 38.562 L 8.522 43.133 L 12.423 43.133 L 13.438 40.944 C 13.672 40.441 14.268 40.223 14.772 40.457 C 15.275 40.692 15.493 41.288 15.258 41.791 L 13.974 44.559 C 13.807 44.912 13.455 45.147 13.06 45.147 L 6.945 45.147 C 6.601 45.147 6.283 44.97 6.098 44.685 C 5.922 44.408 5.897 44.039 6.039 43.729 L 6.039 43.729 Z  M 15.073 28.94 C 20.794 31.012 27.262 28.387 29.862 22.767 L 29.954 22.557 C 25.802 22.029 22.447 18.916 21.557 14.882 L 15.073 28.94 Z  M 31.212 4.874 C 29.711 4.874 28.31 5.294 27.111 6.032 C 28.906 7.433 30.323 9.471 31.212 11.946 C 32.093 9.471 33.519 7.424 35.314 6.032 C 34.115 5.302 32.714 4.874 31.212 4.874 Z  M 27.882 11.543 C 27.228 11.567 26.71 12.105 26.71 12.759 C 26.71 13.414 27.228 13.951 27.882 13.976 C 28.554 13.976 29.099 13.43 29.099 12.759 C 29.09 12.08 28.545 11.543 27.882 11.543 L 27.882 11.543 Z  M 33.327 12.751 C 33.351 13.405 33.888 13.923 34.543 13.923 C 35.197 13.923 35.735 13.405 35.759 12.751 C 35.759 12.08 35.214 11.535 34.543 11.535 C 33.872 11.543 33.327 12.08 33.327 12.751 L 33.327 12.751 Z  M 36.925 7.341 C 36.095 7.911 35.356 8.649 34.719 9.53 C 36.429 9.626 37.767 11.038 37.772 12.751 C 37.772 14.529 36.321 15.98 34.543 15.98 C 33.746 15.98 33.008 15.687 32.446 15.2 C 32.295 16.098 32.219 17.046 32.219 18.019 C 32.219 18.572 31.766 19.025 31.212 19.025 C 30.659 19.025 30.206 18.572 30.206 18.019 C 30.206 17.037 30.13 16.098 29.98 15.2 C 29.417 15.687 28.679 15.98 27.882 15.98 C 26.104 15.98 24.653 14.529 24.653 12.751 C 24.655 11.037 25.995 9.623 27.706 9.53 C 27.069 8.649 26.322 7.911 25.5 7.341 C 24.114 8.801 23.342 10.738 23.344 12.751 C 23.344 17.096 26.876 20.628 31.221 20.628 C 35.566 20.628 39.097 17.096 39.097 12.751 C 39.081 10.662 38.267 8.758 36.925 7.341 L 36.925 7.341 Z  M 20.425 37.647 L 19.695 35.089 C 19.544 34.556 19.852 34.002 20.383 33.847 C 20.916 33.696 21.47 34.004 21.625 34.535 L 22.38 37.178 C 22.707 37.077 23.034 36.968 23.361 36.851 C 27.564 35.299 30.902 32.212 32.781 28.143 L 35.86 21.475 C 34.727 22.079 33.469 22.473 32.127 22.599 L 31.707 23.58 C 31.707 23.589 31.699 23.597 31.699 23.605 C 29.359 28.672 24.334 31.667 19.083 31.667 C 17.464 31.667 15.82 31.381 14.226 30.777 L 11.475 36.741 C 14.318 37.862 17.415 38.175 20.425 37.647 L 20.425 37.647 Z " fill="rgb(219,92,0)"/></g></g></g></g></g></g></svg>